<svg width="201" height="230" viewBox="0 0 201 230" fill="none" xmlns="http://www.w3.org/2000/svg">
<path fill-rule="evenodd" clip-rule="evenodd" d="M201 191.621V52.4663L149.12 0H70.6086L3.28888 68.0798C1.18713 70.2009 0.00421143 73.0793 0 76.0823V175.843C0.00524902 178.85 1.18866 181.732 3.29114 183.858C5.39355 185.985 8.24359 187.181 11.2169 187.187H97.5641C100.546 187.187 103.405 188.385 105.513 190.517C107.621 192.648 108.806 195.54 108.806 198.555V224.298C108.804 225.045 108.947 225.785 109.228 226.476C109.509 227.166 109.921 227.794 110.442 228.324C110.963 228.853 111.582 229.274 112.263 229.561C112.945 229.849 113.676 229.998 114.414 230C115.219 229.992 116.012 229.808 116.739 229.46L201 191.621Z" fill="white"/>
</svg>
