<svg width="199" height="43" viewBox="0 0 199 43" fill="none" xmlns="http://www.w3.org/2000/svg">
<g clip-path="url(#clip0_186_445)">
<path fill-rule="evenodd" clip-rule="evenodd" d="M19.141 0.539703L35.1695 16.7264C35.339 16.8972 35.4735 17.1001 35.5653 17.3235C35.6572 17.5468 35.7045 17.7863 35.7047 18.0281V34.2164C35.7036 34.5682 35.6027 34.9123 35.414 35.208C35.2253 35.5037 34.9566 35.7387 34.6399 35.885L18.969 42.9124C18.8509 42.9689 18.722 42.9988 18.5913 43C18.4713 42.9997 18.3525 42.9755 18.2418 42.9289C18.1311 42.8822 18.0305 42.814 17.9459 42.728C17.8613 42.6421 17.7942 42.5402 17.7486 42.4282C17.703 42.3161 17.6796 42.196 17.68 42.0748V37.8977C17.68 37.4085 17.4875 36.9393 17.1449 36.5933C16.8024 36.2474 16.3378 36.053 15.8533 36.053H1.82264C1.33951 36.0522 0.876405 35.858 0.534777 35.513C0.193149 35.168 0.000849842 34.7003 0 34.2124V18.0249C0.000680473 17.5376 0.1929 17.0706 0.534416 16.7264L16.5629 0.539703C16.7322 0.368716 16.9331 0.233079 17.1543 0.140538C17.3755 0.0479968 17.6125 0.000366211 17.8519 0.000366211C18.0913 0.000366211 18.3284 0.0479968 18.5496 0.140538C18.7708 0.233079 18.9717 0.368716 19.141 0.539703ZM76.6346 10.1299C69.8471 10.1299 64.8429 14.9628 64.8429 21.5008C64.8429 28.0412 69.8495 32.8708 76.6362 32.8708C83.4229 32.8708 88.4272 28.068 88.4272 21.5008C88.4272 14.9336 83.4221 10.1299 76.6346 10.1299ZM76.6354 13.7308C81.045 13.7308 84.3286 16.9836 84.3286 21.5008C84.3286 26.0196 81.0458 29.2707 76.6354 29.2707C72.2251 29.2707 68.9414 26.018 68.9414 21.5008C68.9414 16.9836 72.2259 13.7308 76.6354 13.7308ZM62.9414 21.25H59.0944L59.0904 28.137C57.6857 28.9575 56.1531 29.2732 54.5901 29.2732C49.9611 29.2732 46.6767 25.9879 46.6767 21.5032C46.6767 16.9236 49.9595 13.7333 54.6206 13.7333C56.9664 13.7333 58.9369 14.5229 60.6575 16.2597L63.2219 13.7333C61.1574 11.3643 58.0923 10.1324 54.4334 10.1324C47.584 10.1324 42.5806 14.9019 42.5806 21.5032C42.5806 28.1045 47.5848 32.8733 54.3715 32.8733C57.4679 32.8733 60.6583 31.9294 62.9414 30.0628V21.25ZM90.3277 21.5008C90.3277 14.9628 95.3319 10.1299 102.119 10.1299C108.905 10.1299 113.91 14.9336 113.91 21.5008C113.91 28.068 108.906 32.8708 102.119 32.8708C95.3311 32.8708 90.3277 28.0412 90.3277 21.5008ZM109.813 21.5008C109.813 16.9836 106.529 13.7308 102.119 13.7308C97.7083 13.7308 94.4255 16.9836 94.4255 21.5008C94.4255 26.018 97.7091 29.2707 102.119 29.2707C106.528 29.2707 109.813 26.0196 109.813 21.5008ZM135.266 32.5576V10.4481H131.201V19.5766H119.879V10.4481H115.813V32.5576H119.879V23.0825H131.201V32.5576H135.266ZM143.518 27.4406L141.36 32.5535H137.169L147.021 10.444H151.025L160.909 32.5535H156.656L154.465 27.4406H143.518ZM153.12 24.2195L148.991 14.5546L144.893 24.2195H153.12ZM160.908 10.4481V22.9243C160.908 29.3673 164.505 32.8733 170.51 32.8733C176.483 32.8733 180.08 29.3673 180.08 22.9243V10.4481H176.076V22.766C176.076 27.3148 174.075 29.2732 170.541 29.2732C167.007 29.2732 164.973 27.3108 164.973 22.766V10.4481H160.908ZM181.517 30.2202L182.924 27.03C184.676 28.4518 187.459 29.4647 190.149 29.4647C193.558 29.4647 194.997 28.2327 194.997 26.5909C194.997 24.5281 192.563 23.9424 189.801 23.2775C186.177 22.4051 181.986 21.3966 181.986 16.7361C181.986 13.1652 184.799 10.1348 190.805 10.1348C193.433 10.1348 196.185 10.8295 198.093 12.0931L196.808 15.2834C194.84 14.1155 192.683 13.5474 190.775 13.5474C187.4 13.5474 186.02 14.8743 186.02 16.5502C186.02 18.5851 188.446 19.1674 191.2 19.8286C194.817 20.6969 199 21.7011 199 26.3093C199 29.8469 196.154 32.883 190.149 32.883C186.74 32.8732 183.331 31.7995 181.517 30.2202Z" fill="#FFF3F4"/>
</g>
<defs>
<clipPath id="clip0_186_445">
<rect width="199" height="43" fill="white"/>
</clipPath>
</defs>
</svg>
