<svg width="260" height="314" viewBox="0 0 260 314" fill="none" xmlns="http://www.w3.org/2000/svg">
<path d="M256.103 122.14L139.384 3.93844C138.151 2.68983 136.688 1.69936 135.077 1.02359C133.467 0.347817 131.74 0 129.997 0C128.254 0 126.527 0.347817 124.917 1.02359C123.306 1.69936 121.843 2.68983 120.61 3.93844L3.8916 122.14C1.40469 124.653 0.00495518 128.064 0 131.622V249.829C0.00618851 253.392 1.4065 256.807 3.89422 259.327C6.38194 261.846 9.75425 263.264 13.2724 263.27H115.443C118.971 263.27 122.354 264.69 124.849 267.216C127.343 269.742 128.745 273.168 128.745 276.741V307.244C128.742 308.129 128.912 309.006 129.244 309.824C129.577 310.642 130.065 311.387 130.681 312.014C131.297 312.641 132.03 313.139 132.836 313.48C133.642 313.821 134.507 313.998 135.381 314C136.333 313.991 137.271 313.773 138.131 313.36L252.246 262.044C254.553 260.975 256.509 259.259 257.883 257.1C259.257 254.941 259.992 252.428 260 249.859V131.646C259.999 129.88 259.654 128.131 258.985 126.5C258.317 124.869 257.337 123.387 256.103 122.14Z" fill="white"/>
</svg>
