<svg width="16" height="16" viewBox="0 0 16 16" fill="none" xmlns="http://www.w3.org/2000/svg">
<g clip-path="url(#clip0_255_1527)">
<path d="M15.6862 12.9768H3.20003C3.11842 12.9768 3.04016 12.9447 2.98246 12.8875C2.92476 12.8303 2.89233 12.7528 2.89233 12.672V0.304762C2.89233 0.223934 2.92476 0.146421 2.98246 0.0892671C3.04016 0.0321132 3.11842 0 3.20003 0H15.6862C15.7678 0 15.846 0.0321132 15.9038 0.0892671C15.9615 0.146421 15.9939 0.223934 15.9939 0.304762V12.672C15.9939 12.7528 15.9615 12.8303 15.9038 12.8875C15.846 12.9447 15.7678 12.9768 15.6862 12.9768ZM3.50772 12.3672H15.3785V0.609524H3.50772V12.3672Z" fill="#262B44"/>
<path d="M7.48921 8.64915C7.40761 8.64915 7.32935 8.61703 7.27164 8.55988C7.21394 8.50272 7.18152 8.42521 7.18152 8.34438V0.304762C7.18152 0.223934 7.21394 0.146421 7.27164 0.0892671C7.32935 0.0321132 7.40761 0 7.48921 0C7.57082 0 7.64907 0.0321132 7.70678 0.0892671C7.76448 0.146421 7.7969 0.223934 7.7969 0.304762V8.32001C7.80031 8.36203 7.79487 8.40429 7.78094 8.44413C7.76701 8.48397 7.74488 8.52051 7.71596 8.55144C7.68704 8.58238 7.65196 8.60703 7.61293 8.62385C7.5739 8.64066 7.53177 8.64928 7.48921 8.64915Z" fill="#262B44"/>
<path d="M1.07075 11.2274C0.989149 11.2274 0.91089 11.1953 0.853187 11.1382C0.795483 11.081 0.763062 11.0035 0.763062 10.9227V1.68837C0.763062 1.60754 0.795483 1.53002 0.853187 1.47286C0.91089 1.41571 0.989149 1.38361 1.07075 1.38361C1.15236 1.38361 1.23062 1.41571 1.28832 1.47286C1.34602 1.53002 1.37845 1.60754 1.37845 1.68837V10.9227C1.37845 11.0035 1.34602 11.081 1.28832 11.1382C1.23062 11.1953 1.15236 11.2274 1.07075 11.2274Z" fill="#D2232A"/>
<path d="M7.48921 12.9768C7.40761 12.9768 7.32935 12.9447 7.27164 12.8875C7.21394 12.8304 7.18152 12.7529 7.18152 12.672V10.2034C7.18152 10.1226 7.21394 10.0451 7.27164 9.98795C7.32935 9.93079 7.40761 9.89868 7.48921 9.89868C7.57082 9.89868 7.64907 9.93079 7.70678 9.98795C7.76448 10.0451 7.7969 10.1226 7.7969 10.2034V12.672C7.7969 12.7529 7.76448 12.8304 7.70678 12.8875C7.64907 12.9447 7.57082 12.9768 7.48921 12.9768Z" fill="#262B44"/>
<path d="M12.8246 6.82058H7.48921C7.40761 6.82058 7.32935 6.78847 7.27164 6.73132C7.21394 6.67416 7.18152 6.59665 7.18152 6.51582C7.18152 6.43499 7.21394 6.35748 7.27164 6.30033C7.32935 6.24317 7.40761 6.21106 7.48921 6.21106H12.8246C12.9062 6.21106 12.9845 6.24317 13.0422 6.30033C13.0999 6.35748 13.1323 6.43499 13.1323 6.51582C13.1307 6.59616 13.0978 6.67278 13.0404 6.7296C12.9831 6.78641 12.9057 6.81902 12.8246 6.82058Z" fill="#262B44"/>
<path d="M15.5754 6.82058H13.9754C13.8943 6.81902 13.8169 6.78641 13.7596 6.7296C13.7022 6.67278 13.6693 6.59616 13.6677 6.51582C13.6677 6.43499 13.7001 6.35748 13.7579 6.30033C13.8156 6.24317 13.8938 6.21106 13.9754 6.21106H15.5754C15.657 6.21106 15.7353 6.24317 15.793 6.30033C15.8507 6.35748 15.8831 6.43499 15.8831 6.51582C15.8831 6.59665 15.8507 6.67416 15.793 6.73132C15.7353 6.78847 15.657 6.82058 15.5754 6.82058Z" fill="#262B44"/>
<path d="M1.8462 1.99314H0.301598C0.248687 1.993 0.196787 1.97879 0.15132 1.95198C0.105854 1.92517 0.0684817 1.88676 0.0431284 1.84076C0.0147134 1.79604 -0.000366211 1.74428 -0.000366211 1.69143C-0.000366211 1.63859 0.0147134 1.58682 0.0431284 1.54209L0.800058 0.15848C0.824945 0.109008 0.863756 0.0677194 0.9118 0.0396001C0.959844 0.0114808 1.01507 -0.00227461 1.07083 -1.83682e-06C1.12605 0.000484368 1.18016 0.0153929 1.2277 0.043218C1.27524 0.0710432 1.31453 0.110806 1.3416 0.15848L2.12313 1.536C2.15014 1.58233 2.16435 1.63488 2.16435 1.68838C2.16435 1.74188 2.15014 1.79443 2.12313 1.84076C2.09526 1.88865 2.05478 1.92812 2.006 1.95496C1.95722 1.98181 1.90197 1.995 1.8462 1.99314ZM0.824679 1.38362H1.32314L1.07083 0.932569L0.824679 1.38362Z" fill="#D2232A"/>
<path d="M1.08925 12.9767C1.03451 12.9775 0.980562 12.9638 0.932965 12.937C0.885368 12.9102 0.845848 12.8713 0.818481 12.8244L0.0369497 11.4407C0.0099441 11.3944 -0.00427246 11.3418 -0.00427246 11.2883C-0.00427246 11.2349 0.0099441 11.1823 0.0369497 11.136C0.0650022 11.0914 0.10398 11.0547 0.15025 11.0291C0.19652 11.0035 0.248572 10.99 0.301561 10.9897H1.84616C1.89965 10.9895 1.95226 11.0032 1.99879 11.0293C2.04531 11.0555 2.08415 11.0932 2.11149 11.1387C2.13882 11.1842 2.15371 11.236 2.15466 11.289C2.15562 11.342 2.14261 11.3943 2.11693 11.4407L1.36002 12.8183C1.33345 12.8664 1.29428 12.9065 1.24663 12.9343C1.19898 12.9622 1.1446 12.9769 1.08925 12.9767ZM0.830782 11.5992L1.08309 12.0442L1.32924 11.5992H0.830782Z" fill="#D2232A"/>
<path d="M14.24 15.2259H4.91072C4.82911 15.2259 4.75086 15.1938 4.69315 15.1367C4.63545 15.0795 4.60303 15.002 4.60303 14.9212C4.60303 14.8403 4.63545 14.7628 4.69315 14.7056C4.75086 14.6485 4.82911 14.6164 4.91072 14.6164H14.24C14.3216 14.6164 14.3998 14.6485 14.4575 14.7056C14.5152 14.7628 14.5476 14.8403 14.5476 14.9212C14.5476 15.002 14.5152 15.0795 14.4575 15.1367C14.3998 15.1938 14.3216 15.2259 14.24 15.2259Z" fill="#D2232A"/>
<path d="M14.2399 16C14.184 15.9982 14.1292 15.9836 14.0799 15.9573C14.035 15.9295 13.9979 15.8909 13.9721 15.8451C13.9462 15.7993 13.9325 15.7477 13.9323 15.6952V14.1653C13.9319 14.1127 13.9454 14.0609 13.9713 14.015C13.9971 13.9691 14.0346 13.9306 14.0799 13.9032C14.1256 13.8764 14.1776 13.8622 14.2307 13.8622C14.2838 13.8622 14.3359 13.8764 14.3815 13.9032L15.7784 14.659C15.8269 14.6838 15.8676 14.7214 15.8958 14.7677C15.924 14.814 15.9388 14.8671 15.9384 14.9211C15.9392 14.9754 15.9253 15.0288 15.8983 15.0759C15.8712 15.1231 15.832 15.1622 15.7846 15.1893L14.3938 15.9634C14.3473 15.9905 14.2938 16.0032 14.2399 16ZM14.5476 14.6773V15.171L14.9969 14.9211L14.5476 14.6773Z" fill="#D2232A"/>
<path d="M4.54775 16C4.4962 16.0002 4.44542 15.9877 4.40006 15.9634L3.00313 15.2076C2.95457 15.1813 2.91408 15.1425 2.88592 15.0953C2.85776 15.0481 2.84299 14.9942 2.84314 14.9394C2.84363 14.8847 2.85867 14.8311 2.88677 14.784C2.91486 14.737 2.955 14.698 3.00313 14.6712L4.3939 13.8971C4.44106 13.8715 4.49397 13.8581 4.54775 13.8581C4.60153 13.8581 4.65444 13.8715 4.7016 13.8971C4.7481 13.9237 4.78676 13.9619 4.81375 14.0079C4.84074 14.0539 4.85512 14.106 4.85544 14.1592V15.6891C4.85512 15.7423 4.84074 15.7945 4.81375 15.8405C4.78676 15.8864 4.7481 15.9246 4.7016 15.9512C4.65504 15.9795 4.60225 15.9963 4.54775 16ZM3.78468 14.9333L4.24006 15.1771V14.6834L3.78468 14.9333Z" fill="#D2232A"/>
</g>
<defs>
<clipPath id="clip0_255_1527">
<rect width="16" height="16" fill="white"/>
</clipPath>
</defs>
</svg>
