<svg width="80" height="80" viewBox="0 0 80 80" fill="none" xmlns="http://www.w3.org/2000/svg">
<g clip-path="url(#clip0_475_545)">
<path d="M29.0801 46.9335L29.0802 46.9335C29.0933 46.5542 29.2529 46.1947 29.5254 45.931C29.798 45.6672 30.1621 45.5198 30.5412 45.52C30.5413 45.52 30.5414 45.52 30.5414 45.52L30.5412 45.77L29.0801 46.9335ZM29.0801 46.9335V46.9421V70.2158C29.0801 70.6039 29.234 70.9762 29.5079 71.2508C29.7819 71.5254 30.1535 71.6797 30.5412 71.6797H47.2463C47.634 71.6797 48.0057 71.5254 48.2796 71.2508C48.5536 70.9762 48.7075 70.6039 48.7075 70.2158V46.9421H48.7076L48.7073 46.9335C48.6943 46.5542 48.5346 46.1947 48.2621 45.931C47.9896 45.6673 47.6254 45.5198 47.2463 45.52L29.0801 46.9335ZM45.827 48.3641V68.7937H31.71V48.3641H45.827Z" fill="#D2232A" stroke="#D2232A" stroke-width="0.5"/>
<path d="M12.7418 71.6797L12.7418 71.6795C12.3628 71.6664 12.004 71.5062 11.7409 71.233C11.4778 70.9599 11.3309 70.5952 11.3311 70.2157V36.3516V36.3284L11.3353 36.3055C11.3983 35.9702 11.5762 35.6674 11.8384 35.4494C12.1006 35.2315 12.4305 35.1122 12.7713 35.1122C13.1121 35.1122 13.4421 35.2315 13.7044 35.4494C13.9666 35.6674 14.1443 35.9703 14.2073 36.3055L14.2116 36.3284V36.3516V68.7937H63.7016V36.3516V36.3284L63.7059 36.3055C63.7688 35.9703 63.9466 35.6674 64.2088 35.4494C64.471 35.2315 64.8011 35.1122 65.1418 35.1122C65.4826 35.1122 65.8125 35.2315 66.0747 35.4494C66.3369 35.6674 66.5148 35.9702 66.5778 36.3055L66.5821 36.3284V36.3516V70.2151V70.2157H66.3321C66.3325 70.3824 66.2986 70.5475 66.2325 70.7005C66.1665 70.8535 66.0698 70.9912 65.9483 71.1051C65.8269 71.219 65.6833 71.3066 65.5266 71.3625C65.3699 71.4183 65.2034 71.4412 65.0374 71.4297L12.7418 71.6797ZM12.7418 71.6797H12.7504H65.0292H12.7418Z" fill="#262B44" stroke="#262B44" stroke-width="0.5"/>
<path d="M6.26837 41.1173L6.29336 41.1224H6.31888H6.57618C6.89554 41.2093 7.23503 41.1882 7.54171 41.0617L7.56237 41.0532L7.58119 41.0412L39.1028 20.8674L70.2902 40.7484L70.3061 40.7585L70.3234 40.7662C70.4934 40.8414 70.6773 40.8802 70.8631 40.8802C71.04 40.8802 71.215 40.8451 71.3781 40.7768C71.5598 40.7359 71.7314 40.6584 71.8825 40.549C72.0391 40.4357 72.1701 40.2906 72.267 40.1234L76.7741 33.096L76.7743 33.0961L76.7789 33.0883C76.9702 32.7647 77.0299 32.3798 76.9455 32.0133C76.8611 31.6469 76.6392 31.3269 76.3256 31.1199L76.3224 31.1178L39.8682 7.84712C39.8674 7.84659 39.8666 7.84606 39.8658 7.84553C39.6397 7.69482 39.3741 7.61438 39.1025 7.61438C38.8308 7.61438 38.5653 7.69487 38.3392 7.84563C38.3385 7.84613 38.3377 7.84663 38.337 7.84712L1.55273 31.4082C1.55195 31.4087 1.55116 31.4092 1.55037 31.4097C1.39002 31.5082 1.25081 31.6376 1.14083 31.7904C1.0303 31.944 0.951529 32.1181 0.909073 32.3025C0.866591 32.487 0.86142 32.6781 0.893598 32.8645C0.925597 33.0499 0.993943 33.2271 1.09486 33.3859L5.39487 40.4994C5.39488 40.4994 5.39489 40.4995 5.3949 40.4995C5.49016 40.6572 5.61691 40.7934 5.76715 40.8997C5.91746 41.006 6.08811 41.0801 6.26837 41.1173ZM7.02105 37.6807L4.0748 33.0786L38.894 10.7794L73.3373 32.7447L70.3897 37.3874L39.6593 17.7677C39.6585 17.7672 39.6577 17.7667 39.657 17.7662C39.4309 17.6155 39.1654 17.535 38.8938 17.535C38.6221 17.535 38.3565 17.6155 38.1305 17.7662C38.1297 17.7667 38.129 17.7672 38.1282 17.7677L7.02105 37.6807Z" fill="#262B44" stroke="#262B44" stroke-width="0.5"/>
</g>
<defs>
<clipPath id="clip0_475_545">
<rect width="80" height="80" fill="white"/>
</clipPath>
</defs>
</svg>
