<svg width="80" height="80" viewBox="0 0 80 80" fill="none" xmlns="http://www.w3.org/2000/svg">
<g clip-path="url(#clip0_475_500)">
<path d="M50.2362 33.7428C50.3747 33.6043 50.485 33.4395 50.5608 33.2576C50.6367 33.0757 50.6766 32.8804 50.6783 32.6828C50.68 32.4852 50.6434 32.2893 50.5707 32.1061C50.498 31.9229 50.3906 31.756 50.2546 31.6151C50.1185 31.4742 49.9565 31.3619 49.7778 31.2847C49.5991 31.2075 49.4073 31.1668 49.2132 31.1651C49.0191 31.1634 48.8265 31.2006 48.6466 31.2746C48.4666 31.3486 48.3027 31.458 48.1642 31.5964L43.1401 36.6358C42.9995 36.7753 42.8881 36.9422 42.8125 37.1267C42.7368 37.3111 42.6986 37.5091 42.7 37.709V48.4409H45.6521V38.3342L50.2362 33.7428Z" fill="#D2232A"/>
<path d="M37.7125 36.6078L32.7618 31.5778C32.6245 31.4381 32.4615 31.3273 32.2822 31.2517C32.1029 31.1761 31.9107 31.1371 31.7166 31.1371C31.5225 31.1371 31.3303 31.1761 31.151 31.2517C30.9716 31.3273 30.8087 31.4381 30.6714 31.5778C30.5342 31.7175 30.4253 31.8834 30.351 32.0659C30.2767 32.2484 30.2385 32.4441 30.2385 32.6417C30.2385 32.8393 30.2767 33.0349 30.351 33.2174C30.4253 33.4 30.5342 33.5658 30.6714 33.7056L35.1913 38.2969V48.4129H38.1434V37.6997C38.1403 37.3017 37.9858 36.9204 37.7125 36.6358" fill="#D2232A"/>
<path d="M62.7324 27.705C62.7324 21.6832 60.3823 15.9081 56.1991 11.6501C52.0159 7.39212 46.3423 5 40.4264 5C34.5105 5 28.8368 7.39212 24.6536 11.6501C20.4705 15.9081 18.1204 21.6832 18.1204 27.705C18.1311 31.3362 19.0344 34.9069 20.7478 38.0919C22.4612 41.2769 24.9303 43.9748 27.9302 45.9399V49.5794C27.3377 50.0717 26.854 50.6856 26.5105 51.3812C26.167 52.0768 25.9716 52.8383 25.937 53.616C25.9024 54.3937 26.0293 55.1701 26.3096 55.8945C26.5899 56.6188 27.0172 57.2748 27.5636 57.8196C27.0325 58.3383 26.6131 58.9636 26.3322 59.6561C26.0513 60.3485 25.9148 61.0928 25.9316 61.8418C25.9365 62.6049 26.0982 63.3586 26.4065 64.0543C26.7147 64.75 27.1626 65.3723 27.7213 65.8813C28.28 66.3902 28.9372 66.7744 29.6506 67.0093C30.3639 67.2442 31.1177 67.3245 31.8634 67.245C32.1198 69.3729 33.1321 71.3318 34.7095 72.7525C36.2868 74.1732 38.3202 74.9574 40.4264 74.9574C42.5326 74.9574 44.566 74.1732 46.1433 72.7525C47.7207 71.3318 48.733 69.3729 48.9894 67.245C49.7355 67.3244 50.4897 67.2441 51.2036 67.0093C51.9175 66.7745 52.5752 66.3904 53.1346 65.8816C53.694 65.3728 54.1428 64.7506 54.452 64.0549C54.7612 63.3592 54.9242 62.6053 54.9303 61.8418C54.9471 61.0928 54.8107 60.3485 54.5297 59.6561C54.2488 58.9636 53.8295 58.3383 53.2984 57.8196C53.8442 57.2742 54.2708 56.6177 54.5503 55.893C54.8298 55.1683 54.956 54.3917 54.9205 53.6139C54.8851 52.8362 54.6887 52.0749 54.3444 51.3797C54.0002 50.6844 53.5156 50.071 52.9225 49.5794V45.9399C55.9281 43.9741 58.4011 41.2721 60.1149 38.0815C61.8288 34.8908 62.7287 31.3134 62.7324 27.677V27.705ZM50.5847 51.6231C51.0618 51.8637 51.4477 52.2578 51.6825 52.7442C51.9173 53.2307 51.988 53.7824 51.8835 54.3139C51.7791 54.8454 51.5054 55.3269 51.1048 55.684C50.7043 56.0412 50.1992 56.2538 49.6678 56.2891H31.2308C30.6182 56.2506 30.043 55.9758 29.6226 55.5206C29.2022 55.0655 28.9681 54.4642 28.9681 53.8395C28.9681 53.2147 29.2022 52.6135 29.6226 52.1583C30.043 51.7032 30.6182 51.4283 31.2308 51.3898H49.6311C49.9471 51.3952 50.2589 51.465 50.5479 51.5951L50.5847 51.6231ZM40.3897 71.9297C39.0671 71.927 37.7867 71.4549 36.7692 70.5947C35.7517 69.7345 35.0608 68.54 34.8155 67.217H45.9639C45.7202 68.5408 45.0298 69.7363 44.0119 70.5968C42.9941 71.4574 41.7129 71.9288 40.3897 71.9297V71.9297ZM52.0057 61.8697C52.0057 62.5017 51.7597 63.108 51.3215 63.5557C50.8833 64.0035 50.2887 64.2563 49.6678 64.2588H31.2308C30.6182 64.2203 30.043 63.9454 29.6226 63.4902C29.2022 63.035 28.9681 62.4338 28.9681 61.8091C28.9681 61.1843 29.2022 60.5831 29.6226 60.1279C30.043 59.6728 30.6182 59.3979 31.2308 59.3594H49.6311C49.9489 59.3603 50.2631 59.4268 50.5549 59.5549C50.8466 59.683 51.1097 59.8701 51.3283 60.1049C51.5469 60.3396 51.7165 60.617 51.8266 60.9204C51.9367 61.2238 51.9852 61.5467 51.969 61.8697H52.0057ZM30.8824 48.4409V45.1466C30.8828 44.8908 30.819 44.6391 30.6971 44.4153C30.5751 44.1916 30.3991 44.0032 30.1856 43.8681C27.4733 42.1888 25.1993 39.8678 23.557 37.1024C21.9048 34.2581 21.0458 31.0091 21.0725 27.705C21.1826 22.5557 23.2696 17.655 26.8863 14.0529C30.503 10.4508 35.3618 8.43367 40.4218 8.43367C45.4818 8.43367 50.3406 10.4508 53.9573 14.0529C57.574 17.655 59.6609 22.5557 59.7711 27.705C59.795 31.01 58.9328 34.2591 57.2774 37.1024C55.6377 39.8699 53.3632 42.1915 50.6488 43.8681C50.4354 44.0032 50.2593 44.1916 50.1373 44.4153C50.0154 44.6391 49.9516 44.8908 49.9521 45.1466V48.4409H30.9191" fill="white"/>
<path d="M67.7749 19.2221C67.4351 19.2272 67.1038 19.1127 66.8373 18.898C66.5707 18.6834 66.3851 18.3816 66.3118 18.0437C66.2385 17.7058 66.282 17.3526 66.435 17.0436C66.588 16.7346 66.8411 16.4889 67.1515 16.3478L71.0296 14.4814C71.3858 14.3143 71.7927 14.2982 72.1606 14.4364C72.5286 14.5747 72.8275 14.856 72.9916 15.2186C73.1557 15.5812 73.1716 15.9953 73.0358 16.3699C72.9 16.7444 72.6235 17.0486 72.2673 17.2157L68.3892 19.0821C68.1965 19.1726 67.9871 19.2204 67.7749 19.2221" fill="#D2232A"/>
<path d="M73.3764 28.0409H69.0949C68.7035 28.0409 68.328 27.8827 68.0512 27.6009C67.7744 27.3191 67.6189 26.9369 67.6189 26.5385C67.6189 26.14 67.7744 25.7578 68.0512 25.4761C68.328 25.1943 68.7035 25.036 69.0949 25.036H73.3764C73.7679 25.036 74.1433 25.1943 74.4202 25.4761C74.697 25.7578 74.8525 26.14 74.8525 26.5385C74.8525 26.9369 74.697 27.3191 74.4202 27.6009C74.1433 27.8827 73.7679 28.0409 73.3764 28.0409Z" fill="#D2232A"/>
<path d="M71.5886 38.6888C71.3729 38.6925 71.1593 38.6446 70.9652 38.5488L67.0871 36.729C66.8953 36.6562 66.7203 36.5438 66.5731 36.3988C66.426 36.2539 66.31 36.0796 66.2322 35.8868C66.1544 35.694 66.1166 35.4869 66.1212 35.2786C66.1258 35.0702 66.1727 34.8651 66.2589 34.676C66.3451 34.487 66.4688 34.3181 66.6222 34.1801C66.7755 34.042 66.9553 33.9377 67.1501 33.8737C67.345 33.8097 67.5507 33.7875 67.7545 33.8083C67.9582 33.8291 68.1555 33.8926 68.334 33.9947L72.2029 35.8612C72.5071 36.0051 72.7541 36.2501 72.9031 36.556C73.0522 36.8619 73.0945 37.2104 73.0229 37.544C72.9514 37.8776 72.7703 38.1765 72.5096 38.3913C72.2489 38.6062 71.9241 38.7243 71.5886 38.7261" fill="#D2232A"/>
<path d="M9.2088 38.6889C8.87257 38.6892 8.54629 38.5726 8.28399 38.3584C8.02169 38.1443 7.8391 37.8454 7.76638 37.5113C7.69367 37.1771 7.73519 36.8277 7.88412 36.5209C8.03305 36.2141 8.28047 35.9682 8.58538 35.8239L12.4635 33.9575C12.6419 33.8553 12.8392 33.7919 13.043 33.7711C13.2467 33.7502 13.4524 33.7725 13.6473 33.8365C13.8422 33.9005 14.0219 34.0048 14.1753 34.1428C14.3286 34.2809 14.4523 34.4498 14.5385 34.6388C14.6247 34.8278 14.6716 35.033 14.6762 35.2413C14.6808 35.4497 14.643 35.6567 14.5652 35.8495C14.4875 36.0423 14.3714 36.2167 14.2243 36.3616C14.0772 36.5066 13.9022 36.619 13.7103 36.6918L9.83223 38.5489C9.63808 38.6446 9.42452 38.6926 9.2088 38.6889" fill="#D2232A"/>
<path d="M11.7576 28.0409H7.48533C7.09385 28.0409 6.71842 27.8827 6.44161 27.6009C6.16479 27.3191 6.00928 26.9369 6.00928 26.5385C6.00928 26.14 6.16479 25.7578 6.44161 25.4761C6.71842 25.1943 7.09385 25.036 7.48533 25.036H11.7576C12.1491 25.036 12.5246 25.1943 12.8014 25.4761C13.0782 25.7578 13.2337 26.14 13.2337 26.5385C13.2337 26.9369 13.0782 27.3191 12.8014 27.6009C12.5246 27.8827 12.1491 28.0409 11.7576 28.0409Z" fill="#D2232A"/>
<path d="M13.1511 19.2221C12.9358 19.2214 12.7232 19.1737 12.5277 19.0821L8.64957 17.2157C8.47319 17.133 8.31452 17.0157 8.18266 16.8706C8.05081 16.7254 7.94831 16.5553 7.88105 16.3699C7.8138 16.1844 7.7831 15.9873 7.79068 15.7898C7.79826 15.5922 7.84399 15.3982 7.92526 15.2186C8.00653 15.0391 8.12178 14.8776 8.26436 14.7434C8.40694 14.6092 8.5741 14.5049 8.75628 14.4364C8.93847 14.368 9.1321 14.3367 9.32616 14.3444C9.52021 14.3521 9.71086 14.3987 9.88724 14.4814L13.7653 16.3478C14.075 16.4886 14.3275 16.7335 14.4806 17.0415C14.6336 17.3495 14.6778 17.7018 14.6058 18.0391C14.5337 18.3763 14.3497 18.6781 14.0848 18.8935C13.8199 19.109 13.4902 19.225 13.1511 19.2221" fill="#D2232A"/>
</g>
<defs>
<clipPath id="clip0_475_500">
<rect width="68.8525" height="70" fill="white" transform="translate(6 5)"/>
</clipPath>
</defs>
</svg>
