<svg width="80" height="80" viewBox="0 0 80 80" fill="none" xmlns="http://www.w3.org/2000/svg">
<g clip-path="url(#clip0_855_825)">
<path d="M39.9947 45.6698C42.3599 45.6726 44.6273 46.6134 46.2998 48.2858C47.9722 49.9582 48.9129 52.2257 48.9157 54.5908V57.1579C49.9767 56.6035 50.9851 55.9538 51.9283 55.2167V54.5908C51.976 52.9945 51.7027 51.4048 51.1246 49.9159C50.5466 48.4271 49.6756 47.0695 48.5632 45.9235C47.4509 44.7774 46.1198 43.8664 44.6488 43.2442C43.1779 42.622 41.5971 42.3015 40 42.3015C38.4029 42.3015 36.8221 42.622 35.3511 43.2442C33.8802 43.8664 32.5491 44.7774 31.4368 45.9235C30.3244 47.0695 29.4535 48.4271 28.8754 49.9159C28.2974 51.4048 28.0241 52.9945 28.0717 54.5908V55.2167C29.015 55.9538 30.0233 56.6035 31.0843 57.1579V54.5908C31.0843 52.2267 32.0227 49.9592 33.6934 48.2865C35.3642 46.6137 37.6305 45.6726 39.9947 45.6698" fill="#262B44"/>
<path d="M51.0269 59.4279C51.1269 59.3835 51.2228 59.3303 51.3133 59.2688L51.0269 59.4279Z" fill="#262B44"/>
<path d="M28.687 59.2688C28.7727 59.3319 28.8653 59.3853 28.9628 59.4279L28.687 59.2688Z" fill="#262B44"/>
<path d="M39.9946 41.501C38.4589 41.501 36.9576 41.0456 35.6807 40.1924C34.4038 39.3391 33.4085 38.1264 32.8208 36.7076C32.2331 35.2888 32.0793 33.7275 32.3789 32.2213C32.6785 30.7151 33.4181 29.3315 34.504 28.2456C35.59 27.1597 36.9735 26.4201 38.4797 26.1205C39.9859 25.8209 41.5472 25.9747 42.966 26.5624C44.3849 27.1501 45.5976 28.1453 46.4508 29.4222C47.304 30.6992 47.7594 32.2004 47.7594 33.7361C47.7594 35.7955 46.9413 37.7705 45.4851 39.2267C44.029 40.6829 42.0539 41.501 39.9946 41.501V41.501ZM39.9946 28.9945C39.0542 28.9945 38.135 29.2735 37.3533 29.7961C36.5716 30.3188 35.9624 31.0616 35.6031 31.9306C35.2437 32.7996 35.1502 33.7556 35.3344 34.6778C35.5187 35.5999 35.9723 36.4466 36.638 37.1108C37.3037 37.775 38.1514 38.2268 39.074 38.4089C39.9965 38.5911 40.9524 38.4955 41.8206 38.1342C42.6887 37.7729 43.4302 37.1621 43.9511 36.3792C44.472 35.5963 44.7489 34.6765 44.7468 33.7361C44.7468 33.1126 44.6238 32.4951 44.3849 31.9191C44.1459 31.3432 43.7957 30.82 43.3543 30.3795C42.9129 29.9391 42.3889 29.59 41.8124 29.3524C41.2359 29.1147 40.6182 28.9931 39.9946 28.9945" fill="#262B44"/>
<path d="M25.3032 23.1709L19.2038 17.0715C20.169 15.6338 20.6259 13.9146 20.5019 12.1874C20.3779 10.4602 19.68 8.82401 18.5193 7.53893C17.3586 6.25385 15.8016 5.39366 14.0958 5.09507C12.3901 4.79648 10.6335 5.07665 9.10531 5.89103C7.57709 6.70541 6.36495 8.00728 5.66158 9.58967C4.9582 11.1721 4.80397 12.9442 5.22339 14.6243C5.64281 16.3044 6.61176 17.7961 7.97631 18.8622C9.34085 19.9284 11.0227 20.5078 12.7544 20.5084C14.2932 20.5155 15.7982 20.057 17.0717 19.193L23.1711 25.2924C23.8327 24.5411 24.5413 23.8325 25.2926 23.1709H25.3032ZM12.7437 17.5064C11.8038 17.5064 10.885 17.2277 10.1035 16.7055C9.32204 16.1833 8.71293 15.4411 8.35325 14.5728C7.99356 13.7044 7.89944 12.7489 8.08281 11.8271C8.26618 10.9052 8.71878 10.0585 9.38339 9.39385C10.048 8.72924 10.8948 8.27664 11.8166 8.09327C12.7384 7.9099 13.694 8.00402 14.5623 8.36371C15.4307 8.72339 16.1729 9.3325 16.6951 10.114C17.2172 10.8955 17.4959 11.8143 17.4959 12.7542C17.4959 13.3783 17.373 13.9962 17.1342 14.5728C16.8954 15.1494 16.5454 15.6732 16.1041 16.1145C15.6628 16.5558 15.1389 16.9059 14.5623 17.1447C13.9858 17.3835 13.3678 17.5064 12.7437 17.5064" fill="#262B44"/>
<path d="M67.235 59.4809C65.6967 59.4771 64.1926 59.9353 62.9177 60.7962L56.8183 54.6968C56.1596 55.4509 55.4508 56.1597 54.6968 56.8184L60.7962 62.9178C59.8307 64.3559 59.3738 66.0756 59.4982 67.8032C59.6226 69.5309 60.321 71.1673 61.4825 72.4523C62.6439 73.7374 64.2017 74.5971 65.9081 74.8949C67.6144 75.1927 69.3713 74.9114 70.8994 74.0958C72.4274 73.2801 73.6389 71.977 74.3411 70.3936C75.0433 68.8102 75.1959 67.0375 74.7747 65.3573C74.3534 63.6772 73.3825 62.1862 72.0163 61.1214C70.6502 60.0566 68.9672 59.4791 67.235 59.4809V59.4809ZM67.235 71.9874C66.2951 71.9874 65.3764 71.7086 64.5948 71.1864C63.8133 70.6643 63.2042 69.9221 62.8446 69.0537C62.4849 68.1853 62.3908 67.2299 62.5741 66.308C62.7575 65.3862 63.2101 64.5394 63.8747 63.8748C64.5393 63.2102 65.3861 62.7576 66.3079 62.5742C67.2298 62.3908 68.1853 62.4849 69.0536 62.8446C69.922 63.2043 70.6642 63.8134 71.1864 64.5949C71.7086 65.3764 71.9873 66.2952 71.9873 67.2351C71.9873 67.8592 71.8644 68.4771 71.6255 69.0537C71.3867 69.6303 71.0367 70.1542 70.5954 70.5955C70.1541 71.0367 69.6302 71.3868 69.0536 71.6256C68.4771 71.8644 67.8591 71.9874 67.235 71.9874" fill="#262B44"/>
<path d="M23.171 54.6969L17.0716 60.7963C15.7981 59.9323 14.2931 59.4738 12.7542 59.481C11.0254 59.4828 9.34678 60.0624 7.98506 61.1275C6.62334 62.1927 5.6566 63.6823 5.23849 65.3598C4.82037 67.0373 4.97488 68.8064 5.67739 70.3861C6.37989 71.9657 7.59011 73.2653 9.11581 74.0784C10.6415 74.8914 12.3952 75.1713 14.0982 74.8735C15.8012 74.5757 17.3558 73.7173 18.515 72.4348C19.6743 71.1523 20.3718 69.5191 20.4965 67.7948C20.6213 66.0705 20.1662 64.3539 19.2037 62.9178L25.3031 56.8184C24.5517 56.1568 23.8431 55.4482 23.1815 54.6969H23.171ZM12.7649 71.9874C11.825 71.9874 10.9061 71.7087 10.1246 71.1865C9.34309 70.6643 8.73399 69.9221 8.3743 69.0538C8.01461 68.1854 7.92056 67.2299 8.10393 66.3081C8.28729 65.3862 8.7399 64.5394 9.40451 63.8748C10.0691 63.2102 10.9159 62.7576 11.8377 62.5742C12.7596 62.3909 13.7151 62.485 14.5834 62.8447C15.4518 63.2044 16.194 63.8135 16.7162 64.595C17.2384 65.3765 17.5171 66.2953 17.5171 67.2352C17.5171 68.4955 17.0164 69.7043 16.1251 70.5955C15.2339 71.4867 14.0252 71.9874 12.7649 71.9874" fill="#262B44"/>
<path d="M56.8183 25.2925L62.9177 19.193C64.1926 20.054 65.6967 20.5123 67.235 20.5084C68.9643 20.5089 70.6441 19.9314 72.0075 18.8676C73.3708 17.8038 74.3395 16.3148 74.7594 14.6373C75.1794 12.9598 75.0265 11.19 74.3252 9.60934C73.6238 8.02867 72.4143 6.72782 70.8887 5.91352C69.3632 5.09922 67.6092 4.81823 65.9056 5.11522C64.202 5.41221 62.6466 6.27013 61.4866 7.55261C60.3266 8.83509 59.6285 10.4685 59.5034 12.1933C59.3783 13.918 59.8334 15.6351 60.7962 17.0715L54.6968 23.1709C55.4508 23.8296 56.1596 24.5384 56.8183 25.2925V25.2925ZM67.235 8.00197C68.1754 7.99987 69.0952 8.2768 69.8781 8.79771C70.661 9.31861 71.2718 10.0601 71.6331 10.9282C71.9944 11.7964 72.09 12.7523 71.9079 13.6748C71.7257 14.5974 71.274 15.4451 70.6098 16.1108C69.9456 16.7764 69.0988 17.2301 68.1767 17.4143C67.2546 17.5986 66.2985 17.5051 65.4295 17.1457C64.5606 16.7863 63.8177 16.1772 63.295 15.3955C62.7724 14.6138 62.4934 13.6946 62.4934 12.7542C62.4962 11.4965 62.9963 10.291 63.8847 9.4007C64.773 8.51039 65.9774 8.00757 67.235 8.00197" fill="#262B44"/>
<path d="M39.9947 62.345C35.5742 62.345 31.253 61.0342 27.5775 58.5783C23.902 56.1224 21.0373 52.6318 19.3456 48.5478C17.654 44.4638 17.2114 39.9699 18.0737 35.6343C18.9361 31.2988 21.0648 27.3163 24.1906 24.1906C27.3163 21.0648 31.2987 18.9361 35.6343 18.0738C39.9698 17.2114 44.4637 17.654 48.5477 19.3456C52.6317 21.0373 56.1224 23.902 58.5783 27.5775C61.0342 31.253 62.345 35.5742 62.345 39.9947C62.3366 45.9198 59.9791 51.5998 55.7894 55.7895C51.5997 59.9792 45.9198 62.3366 39.9947 62.345V62.345ZM39.9947 20.6463C36.1679 20.6463 32.4271 21.781 29.2453 23.9071C26.0634 26.0331 23.5835 29.0549 22.1191 32.5904C20.6546 36.1258 20.2715 40.0161 21.018 43.7693C21.7646 47.5226 23.6073 50.9701 26.3133 53.676C29.0192 56.382 32.4667 58.2247 36.2199 58.9713C39.9732 59.7178 43.8635 59.3347 47.399 57.8703C50.9344 56.4058 53.9562 53.9259 56.0823 50.7441C58.2083 47.5622 59.343 43.8214 59.343 39.9947C59.3374 34.8649 57.2971 29.9468 53.6698 26.3195C50.0425 22.6922 45.1244 20.6519 39.9947 20.6463" fill="#D2232A"/>
</g>
<defs>
<clipPath id="clip0_855_825">
<rect width="70" height="70" fill="white" transform="translate(5 5)"/>
</clipPath>
</defs>
</svg>
