<?xml version="1.0" encoding="utf-8"?>
<!-- Generator: Adobe Illustrator 24.1.2, SVG Export Plug-In . SVG Version: 6.00 Build 0)  -->
<svg version="1.1" id="Layer_1" xmlns="http://www.w3.org/2000/svg" xmlns:xlink="http://www.w3.org/1999/xlink" x="0px" y="0px"
	 viewBox="0 0 80 80" style="enable-background:new 0 0 80 80;" xml:space="preserve">
<style type="text/css">
	.st0{clip-path:url(#SVGID_2_);}
	.st1{fill:#000835;}
	.st2{fill:#D2232A;}
</style>
<g>
	<defs>
		<rect id="SVGID_1_" x="5" y="5" width="70" height="70"/>
	</defs>
	<clipPath id="SVGID_2_">
		<use xlink:href="#SVGID_1_"  style="overflow:visible;"/>
	</clipPath>
	<g class="st0">
		<path class="st1" d="M69.8,36.7h-3.6V12.2c0-2-1-3.5-1.9-3.5H15.7c-0.9,0-1.9,1.5-1.9,3.5v24.5h-3.6V12.2
			c-0.2-1.7,0.3-3.4,1.3-4.7c1-1.3,2.6-2.2,4.2-2.4h48.6c1.7,0.2,3.2,1.1,4.2,2.4c1,1.3,1.5,3.1,1.3,4.7V36.7z"/>
		<path class="st2" d="M37.5,38.5h-16c-1.1,0-2.2-0.5-3-1.3c-0.8-0.8-1.3-1.9-1.3-3.1v-5c0-0.6,0.1-1.2,0.3-1.7
			c0.2-0.5,0.5-1,0.9-1.5s0.9-0.7,1.4-1c0.5-0.2,1.1-0.3,1.7-0.3h16c0.6,0,1.1,0.1,1.7,0.3c0.5,0.2,1,0.5,1.4,1
			c0.4,0.4,0.7,0.9,0.9,1.4c0.2,0.5,0.3,1.1,0.3,1.7v5c0,0.6-0.1,1.2-0.3,1.7c-0.2,0.5-0.5,1-0.9,1.4c-0.4,0.4-0.9,0.7-1.4,1
			C38.6,38.4,38.1,38.5,37.5,38.5L37.5,38.5z M21.5,28.5c-0.2,0-0.4,0.1-0.5,0.2c-0.1,0.1-0.2,0.3-0.2,0.5v5c0,0.2,0.1,0.4,0.2,0.5
			c0.1,0.1,0.3,0.2,0.5,0.2h16c0.2,0,0.4-0.1,0.5-0.2c0.1-0.1,0.2-0.3,0.2-0.5v-5c0-0.2-0.1-0.4-0.2-0.5c-0.1-0.1-0.3-0.2-0.5-0.2
			H21.5z"/>
		<path class="st2" d="M58.4,38.5h-16c-1.1,0-2.2-0.5-3.1-1.3c-0.8-0.8-1.3-1.9-1.3-3.1v-5c0-0.6,0.1-1.2,0.3-1.7
			c0.2-0.5,0.5-1,0.9-1.5c0.4-0.4,0.9-0.7,1.4-1s1.1-0.3,1.7-0.3h16c0.6,0,1.1,0.1,1.7,0.3c0.5,0.2,1,0.5,1.4,1
			c0.4,0.4,0.7,0.9,0.9,1.4c0.2,0.5,0.3,1.1,0.3,1.7v5c0,0.6-0.1,1.2-0.3,1.7c-0.2,0.5-0.5,1-0.9,1.4c-0.4,0.4-0.9,0.7-1.4,1
			C59.6,38.4,59,38.5,58.4,38.5L58.4,38.5z M42.5,28.5c-0.2,0-0.4,0.1-0.5,0.2c-0.1,0.1-0.2,0.3-0.2,0.5v5c0,0.2,0.1,0.4,0.2,0.5
			c0.1,0.1,0.3,0.2,0.5,0.2h16c0.2,0,0.4-0.1,0.5-0.2c0.1-0.1,0.2-0.3,0.2-0.5v-5c0-0.2-0.1-0.4-0.2-0.5c-0.1-0.1-0.3-0.2-0.5-0.2
			H42.5z"/>
		<path class="st1" d="M66.9,62.6H13.1c-2.1,0-4.2-0.9-5.7-2.4C5.9,58.6,5,56.5,5,54.4V43.2c0-2.2,0.9-4.3,2.4-5.8
			C8.9,35.8,11,35,13.1,35h53.8c2.1,0,4.2,0.9,5.7,2.4c1.5,1.5,2.4,3.6,2.4,5.8v11.2c0,2.2-0.9,4.3-2.4,5.8
			C71.1,61.7,69,62.6,66.9,62.6L66.9,62.6z M13.1,38.4c-1.2,0-2.4,0.5-3.3,1.4c-0.9,0.9-1.4,2.1-1.4,3.4v11.2c0,1.3,0.5,2.5,1.4,3.4
			c0.9,0.9,2.1,1.4,3.3,1.4h53.8c1.2,0,2.4-0.5,3.3-1.4c0.9-0.9,1.4-2.1,1.4-3.4V43.2c0-1.3-0.5-2.5-1.4-3.4
			c-0.9-0.9-2.1-1.4-3.3-1.4H13.1z"/>
		<path class="st1" d="M14.1,60.8H10V75h4.1V60.8z"/>
		<path class="st1" d="M70,60.8H66V75H70V60.8z"/>
	</g>
</g>
</svg>
