<svg width="16" height="16" viewBox="0 0 16 16" fill="none" xmlns="http://www.w3.org/2000/svg">
<path d="M11.055 15H4.94495C3.39142 15 0 11.1686 0 7.36953V7H16V7.36953C16 11.1686 12.6086 15 11.055 15ZM0.797579 7.73258C1.00564 11.1426 4.04335 14.2545 4.95883 14.2545H11.0689C11.9705 14.2545 15.0082 11.1426 15.2302 7.73258H0.797579Z" fill="#262B44"/>
<path d="M4.45808 13.9816L3.29224 15.442L3.888 15.986L5.05384 14.5256L4.45808 13.9816Z" fill="#262B44"/>
<path d="M11.5301 13.981L10.9343 14.525L12.1002 15.9854L12.6959 15.4414L11.5301 13.981Z" fill="#262B44"/>
<path d="M2.79029 7H2V2.44671C2 0.645043 3.06066 0 3.9688 0C4.87695 0 5.93067 0.645043 5.93067 2.44671H5.14731C5.14731 1.43096 4.7175 0.845228 3.9688 0.845228C3.2201 0.845228 2.79029 1.43096 2.79029 2.44671V7Z" fill="#D2232A"/>
</svg>
