<svg width="80" height="80" viewBox="0 0 80 80" fill="none" xmlns="http://www.w3.org/2000/svg">
<g clip-path="url(#clip0_855_807)">
<path d="M42.0828 24.8267C40.9671 24.8267 39.8763 24.4959 38.9486 23.8761C38.0209 23.2563 37.2978 22.3753 36.8708 21.3447C36.4438 20.314 36.3321 19.1798 36.5498 18.0856C36.7675 16.9915 37.3048 15.9864 38.0937 15.1976C38.8827 14.4087 39.8879 13.8715 40.9823 13.6539C42.0766 13.4362 43.2108 13.5479 44.2416 13.9748C45.2724 14.4018 46.1535 15.1247 46.7734 16.0523C47.3933 16.9799 47.7242 18.0705 47.7242 19.1861C47.7242 20.6821 47.1299 22.1168 46.0719 23.1746C45.0139 24.2324 43.579 24.8267 42.0828 24.8267ZM42.0828 16.488C41.5547 16.488 41.0384 16.6446 40.5993 16.9379C40.1601 17.2313 39.8179 17.6483 39.6158 18.1362C39.4137 18.624 39.3609 19.1608 39.4639 19.6788C39.5669 20.1967 39.8212 20.6724 40.1947 21.0458C40.5681 21.4192 41.0439 21.6734 41.5619 21.7765C42.0798 21.8795 42.6167 21.8266 43.1047 21.6245C43.5926 21.4224 44.0096 21.0803 44.303 20.6412C44.5964 20.2021 44.753 19.6859 44.753 19.1579C44.753 18.4498 44.4717 17.7707 43.971 17.27C43.4702 16.7693 42.791 16.488 42.0828 16.488" fill="#D2232A"/>
<path d="M33.423 30.1571H42.0826C39.1666 30.1522 36.3714 28.9917 34.3094 26.93C32.2475 24.8684 31.0868 22.0736 31.0818 19.1579C31.0779 16.2136 32.241 13.3876 34.3163 11.2987C35.3252 10.2579 36.5329 9.43035 37.8679 8.86523C39.2028 8.3001 40.6377 8.0089 42.0873 8.0089C43.5369 8.0089 44.9718 8.3001 46.3067 8.86523C47.6416 9.43035 48.8494 10.2579 49.8583 11.2987C51.9336 13.3876 53.0965 16.2136 53.0926 19.1579C53.0876 22.0752 51.9258 24.8714 49.8618 26.9334C47.7979 28.9953 45.0002 30.1547 42.0826 30.1571H50.7515C53.0418 28.3441 54.7125 25.8646 55.5328 23.0613C56.3532 20.258 56.2827 17.2692 55.3311 14.5077C54.3795 11.7462 52.5937 9.34823 50.2205 7.64511C47.8473 5.94199 45.0038 5.01773 42.0826 5C40.2344 5.0019 38.4054 5.37389 36.7034 6.09401C35.0013 6.81413 33.4607 7.86779 32.1725 9.19285C30.7781 10.6009 29.6963 12.287 28.9973 14.1413C28.2984 15.9955 27.9981 17.9761 28.1161 19.9542C28.2341 21.9322 28.7676 23.8632 29.6821 25.6212C30.5965 27.3792 31.8711 28.9248 33.423 30.1571" fill="#D2232A"/>
<path d="M54.6159 45.6876C54.3434 45.6875 54.0761 45.6133 53.8424 45.4731C53.6088 45.3329 53.4177 45.1318 53.2894 44.8915C53.1612 44.6511 53.1006 44.3804 53.1142 44.1083C53.1278 43.8362 53.2151 43.5728 53.3667 43.3465C53.5183 43.1201 53.7286 42.9391 53.9751 42.8229C54.2216 42.7067 54.495 42.6596 54.7661 42.6867C55.0373 42.7138 55.2959 42.8139 55.5146 42.9765C55.7332 43.1392 55.9035 43.3581 56.0074 43.61C56.0993 43.8386 56.1339 44.0862 56.1083 44.3313C56.0827 44.5764 55.9976 44.8115 55.8605 45.0163C55.7234 45.221 55.5383 45.3892 55.3214 45.5062C55.1045 45.6232 54.8623 45.6855 54.6159 45.6876Z" fill="#262B44"/>
<path d="M69.3302 42.6605H67.7977C67.123 40.0725 65.9824 37.629 64.4317 35.4499L70.3362 28.4649C70.5814 28.1766 70.7089 27.8065 70.6932 27.4284C70.6775 27.0503 70.5198 26.692 70.2516 26.4249C68.8144 24.9877 66.9614 24.039 64.9549 23.7134C62.9485 23.3877 60.8904 23.7016 59.0723 24.6105L57.1919 25.5506C56.4867 25.1746 55.7533 24.8173 55.0012 24.4977C54.6193 25.431 54.137 26.3199 53.5626 27.1488C54.5296 27.5598 55.4714 28.0275 56.3833 28.5495C56.5983 28.6721 56.8399 28.7405 57.0873 28.7487C57.3347 28.7568 57.5804 28.7046 57.803 28.5965L60.3416 27.3274C61.3858 26.8079 62.5476 26.5702 63.7119 26.6378C64.8762 26.7055 66.0027 27.076 66.9797 27.7128L61.2818 34.4534C61.0698 34.7209 60.9545 35.0521 60.9545 35.3935C60.9545 35.7348 61.0698 36.0661 61.2818 36.3336C63.1657 38.7094 64.455 41.5005 65.0427 44.4749C65.1141 44.8132 65.2999 45.1166 65.5688 45.3341C65.8376 45.5515 66.1732 45.6698 66.519 45.6688H69.2456C69.9522 45.6713 70.629 45.9537 71.1277 46.4541C71.6265 46.9545 71.9065 47.6322 71.9065 48.3387V52.5033C71.9065 53.2098 71.6265 53.8875 71.1277 54.3879C70.629 54.8883 69.9522 55.1707 69.2456 55.1732C68.8884 55.1732 65.7668 55.1732 65.212 55.1732C64.9265 55.1905 64.6515 55.2879 64.4187 55.4541C64.1859 55.6204 64.0047 55.8488 63.8957 56.1133C62.5556 59.2048 60.4528 61.9057 57.7842 63.9632C57.6009 64.1038 57.4522 64.2845 57.3496 64.4914C57.2469 64.6984 57.1929 64.9261 57.1919 65.1571C57.1919 65.646 57.1919 67.5074 57.1919 69.3406C57.1811 69.8683 57.0175 70.3815 56.7207 70.818C56.4239 71.2544 56.0068 71.5954 55.5199 71.7995C55.0331 72.0035 54.4975 72.0619 53.9782 71.9675C53.4588 71.8731 52.978 71.6301 52.5941 71.2678C52.1207 70.7897 51.8541 70.1449 51.8514 69.4722C51.8514 68.5979 51.8514 67.9022 51.8514 67.6766C51.8498 67.4176 51.7817 67.1633 51.6538 66.9381C51.5258 66.7129 51.3422 66.5244 51.1205 66.3904C50.8988 66.2565 50.6465 66.1816 50.3876 66.1731C50.1287 66.1645 49.8718 66.2226 49.6418 66.3416C46.2006 68.3065 37.8043 68.3065 34.3725 66.3416C34.1415 66.222 33.8836 66.1634 33.6236 66.1717C33.3635 66.1799 33.11 66.2546 32.887 66.3886C32.6639 66.5217 32.4792 66.7103 32.3506 66.936C32.2221 67.1617 32.1542 67.4168 32.1536 67.6766V69.4722C32.1536 70.1437 31.8874 70.7879 31.4134 71.2637C30.9393 71.7394 30.2961 72.008 29.6244 72.0105C29.2627 72.0282 28.9012 71.9727 28.5615 71.8473C28.2218 71.7219 27.9108 71.5292 27.6474 71.2808C27.384 71.0323 27.1735 70.7332 27.0286 70.4015C26.8836 70.0697 26.8071 69.712 26.8037 69.3499C26.8037 67.3569 26.8037 65.2417 26.8037 64.4614C26.7996 64.2153 26.7358 63.9738 26.6179 63.7577C26.5 63.5416 26.3315 63.3572 26.1268 63.2205C11.243 53.3306 14.1765 33.8705 30.4706 27.13C29.8933 26.3047 29.4078 25.4189 29.0226 24.4883C19.3289 28.7 13.208 37.2643 13.3961 46.6935C12.1008 46.4019 10.9143 45.7501 9.97361 44.8133C9.32427 44.1887 8.8073 43.4398 8.45354 42.6113C8.09978 41.7827 7.91653 40.8915 7.91456 39.9906C7.91456 39.5916 7.75607 39.2091 7.47394 38.927C7.19182 38.6449 6.80909 38.4864 6.4101 38.4864C6.01112 38.4864 5.6285 38.6449 5.34638 38.927C5.06426 39.2091 4.90576 39.5916 4.90576 39.9906C4.94247 42.4047 5.85205 44.7239 7.46637 46.5195C9.08069 48.315 11.2905 49.4655 13.6875 49.7582C14.2691 52.8775 15.4615 55.8512 17.1961 58.5084C18.9307 61.1655 21.1732 63.4538 23.7949 65.2417C23.7949 66.2476 23.7949 67.827 23.7949 69.3217C24.0206 76.4853 34.3161 77.0212 35.1341 69.867C39.6136 71.1266 44.3537 71.1266 48.8332 69.867C48.9477 71.2766 49.5946 72.5897 50.6424 73.5396C51.6902 74.4895 53.0604 75.0049 54.4746 74.9812C55.9708 74.9812 57.4057 74.3869 58.4637 73.3291C59.5216 72.2713 60.116 70.8365 60.116 69.3406V65.8904C62.6595 63.7879 64.724 61.166 66.1711 58.2003H69.1704C70.6665 58.2003 72.1015 57.6061 73.1594 56.5483C74.2174 55.4904 74.8117 54.0557 74.8117 52.5597V48.3951C74.8117 46.8991 74.2174 45.4644 73.1594 44.4066C72.1015 43.3488 70.6665 42.7545 69.1704 42.7545" fill="#262B44"/>
<path d="M52.5099 33.1655H31.665C31.4674 33.1655 31.2719 33.1266 31.0894 33.051C30.9069 32.9754 30.741 32.8647 30.6013 32.725C30.4616 32.5853 30.3508 32.4195 30.2752 32.237C30.1996 32.0545 30.1606 31.8589 30.1606 31.6614C30.1606 31.4638 30.1996 31.2683 30.2752 31.0858C30.3508 30.9033 30.4616 30.7375 30.6013 30.5978C30.741 30.4581 30.9069 30.3473 31.0894 30.2717C31.2719 30.1961 31.4674 30.1572 31.665 30.1572H52.5099C52.7074 30.1572 52.9031 30.1961 53.0856 30.2717C53.2681 30.3473 53.4339 30.4581 53.5736 30.5978C53.7133 30.7375 53.8242 30.9033 53.8998 31.0858C53.9754 31.2683 54.0142 31.4638 54.0142 31.6614C54.0142 31.8589 53.9754 32.0545 53.8998 32.237C53.8242 32.4195 53.7133 32.5853 53.5736 32.725C53.4339 32.8647 53.2681 32.9754 53.0856 33.051C52.9031 33.1266 52.7074 33.1655 52.5099 33.1655" fill="#262B44"/>
</g>
<defs>
<clipPath id="clip0_855_807">
<rect width="70" height="70" fill="white" transform="translate(5 5)"/>
</clipPath>
</defs>
</svg>
