<svg width="80" height="80" viewBox="0 0 80 80" fill="none" xmlns="http://www.w3.org/2000/svg">
<path d="M53.3658 70.625H26.6342C19.8375 70.625 5 53.8624 5 37.2417V35.625H75V37.2417C75 53.8624 60.1625 70.625 53.3658 70.625ZM8.48941 38.83C9.39968 53.749 22.6897 67.3633 26.6949 67.3633H53.4265C57.371 67.3633 70.661 53.749 71.632 38.83H8.48941Z" fill="white"/>
<path d="M23.6737 67L19.4035 72.5589L22.01 74.9389L27.1105 68.5496L23.6737 67Z" fill="white"/>
<path d="M56.5 67.2226L52.8376 68.5466L57.9382 74.936L60.5446 72.556L56.5 67.2226Z" fill="white"/>
<path d="M17.2075 35.625H13.75V15.7044C13.75 7.82206 18.3904 5 22.3635 5C26.3366 5 30.9467 7.82206 30.9467 15.7044H27.5195C27.5195 11.2604 25.6391 8.69787 22.3635 8.69787C19.0879 8.69787 17.2075 11.2604 17.2075 15.7044V35.625Z" fill="#D2232A"/>
</svg>
