<svg width="16" height="16" viewBox="0 0 16 16" fill="none" xmlns="http://www.w3.org/2000/svg">
<g clip-path="url(#clip0_255_1545)">
<path d="M14.8113 7.24459H13.98V1.64348C13.98 1.18655 13.7466 0.832797 13.5497 0.832797H2.45034C2.25344 0.832797 2.02008 1.18655 2.02008 1.64348V7.24459H1.18872V1.64348C1.14122 1.25662 1.24729 0.866493 1.48374 0.558482C1.72018 0.25047 2.06774 0.0496599 2.45034 0H13.5497C13.9323 0.0496599 14.2799 0.25047 14.5163 0.558482C14.7527 0.866493 14.8588 1.25662 14.8113 1.64348V7.24459Z" fill="#262B44"/>
<path d="M7.42384 7.6647H3.77753C3.51643 7.6647 3.26602 7.55987 3.08139 7.37329C2.89676 7.1867 2.79304 6.93364 2.79304 6.66976V5.52743C2.78911 5.39369 2.81192 5.26053 2.86009 5.1359C2.90826 5.01128 2.98082 4.89775 3.07341 4.80212C3.166 4.70648 3.27672 4.6307 3.39896 4.57931C3.5212 4.52792 3.65244 4.50197 3.78483 4.50302H7.43114C7.56139 4.50302 7.69035 4.52895 7.81068 4.57932C7.93101 4.62969 8.04035 4.70352 8.13245 4.79659C8.22455 4.88966 8.29759 5.00015 8.34744 5.12176C8.39728 5.24336 8.42294 5.3737 8.42294 5.50532V6.64766C8.42488 6.78114 8.40042 6.91367 8.351 7.03746C8.30157 7.16126 8.22816 7.27384 8.1351 7.36858C8.04203 7.46331 7.93117 7.53831 7.80904 7.58916C7.6869 7.64001 7.55593 7.66569 7.42384 7.6647ZM3.77753 5.3653C3.73498 5.3653 3.69417 5.38238 3.66409 5.41279C3.634 5.44319 3.6171 5.48443 3.6171 5.52743V6.66976C3.6171 6.71277 3.634 6.75401 3.66409 6.78441C3.69417 6.81482 3.73498 6.8319 3.77753 6.8319H7.42384C7.46639 6.8319 7.5072 6.81482 7.53729 6.78441C7.56738 6.75401 7.58428 6.71277 7.58428 6.66976V5.52743C7.58428 5.48443 7.56738 5.44319 7.53729 5.41279C7.5072 5.38238 7.46639 5.3653 7.42384 5.3653H3.77753Z" fill="#D2232A"/>
<path d="M12.2151 7.6647H8.56882C8.30704 7.6647 8.05587 7.56012 7.87008 7.37374C7.68429 7.18736 7.57895 6.93431 7.57702 6.66976V5.52743C7.57409 5.39334 7.59782 5.26001 7.64681 5.13535C7.69579 5.0107 7.76905 4.89724 7.86221 4.80171C7.95538 4.70618 8.06657 4.63053 8.1892 4.57922C8.31183 4.52791 8.44339 4.502 8.57611 4.50302H12.2224C12.3523 4.50302 12.4809 4.52899 12.6009 4.57945C12.7208 4.62991 12.8296 4.70386 12.9212 4.79703C13.0127 4.8902 13.085 5.00075 13.1341 5.12231C13.1831 5.24388 13.2079 5.37405 13.2069 5.50532V6.64765C13.2099 6.78078 13.1863 6.91315 13.1377 7.03691C13.0891 7.16068 13.0164 7.27332 12.9239 7.36816C12.8314 7.46301 12.721 7.53812 12.5993 7.58906C12.4775 7.64 12.3469 7.66572 12.2151 7.6647ZM8.56882 5.36529C8.52627 5.36529 8.48546 5.38238 8.45537 5.41278C8.42529 5.44319 8.40838 5.48443 8.40838 5.52743V6.66976C8.40838 6.71276 8.42529 6.754 8.45537 6.78441C8.48546 6.81482 8.52627 6.8319 8.56882 6.8319H12.2151C12.2577 6.8319 12.2985 6.81482 12.3286 6.78441C12.3587 6.754 12.3756 6.71276 12.3756 6.66976V5.52743C12.3756 5.48443 12.3587 5.44319 12.3286 5.41278C12.2985 5.38238 12.2577 5.36529 12.2151 5.36529H8.56882Z" fill="#D2232A"/>
<path d="M14.1477 13.1552H1.85232C1.36105 13.1552 0.889907 12.958 0.542529 12.607C0.19515 12.2559 0 11.7798 0 11.2833V8.72595C0 8.22948 0.19515 7.75334 0.542529 7.40229C0.889907 7.05123 1.36105 6.854 1.85232 6.854H14.1477C14.6389 6.854 15.1101 7.05123 15.4575 7.40229C15.8048 7.75334 16 8.22948 16 8.72595V11.2833C16 11.7798 15.8048 12.2559 15.4575 12.607C15.1101 12.958 14.6389 13.1552 14.1477 13.1552ZM1.85232 7.64258C1.568 7.64258 1.29533 7.75672 1.09429 7.95989C0.893251 8.16306 0.780315 8.43862 0.780315 8.72595V11.2833C0.780315 11.5706 0.893251 11.8462 1.09429 12.0494C1.29533 12.2525 1.568 12.3667 1.85232 12.3667H14.1477C14.432 12.3667 14.7047 12.2525 14.9057 12.0494C15.1068 11.8462 15.2197 11.5706 15.2197 11.2833V8.72595C15.2197 8.43862 15.1068 8.16306 14.9057 7.95989C14.7047 7.75672 14.432 7.64258 14.1477 7.64258H1.85232Z" fill="#262B44"/>
<path d="M2.07106 12.7646H1.1449V16H2.07106V12.7646Z" fill="#262B44"/>
<path d="M14.8623 12.7646H13.9362V16H14.8623V12.7646Z" fill="#262B44"/>
</g>
<defs>
<clipPath id="clip0_255_1545">
<rect width="16" height="16" fill="white"/>
</clipPath>
</defs>
</svg>
