<svg width="80" height="80" viewBox="0 0 80 80" fill="none" xmlns="http://www.w3.org/2000/svg">
<g clip-path="url(#clip0_475_530)">
<path d="M41.6884 17.2993L41.5999 18.3624C41.5629 18.9537 41.6521 19.5462 41.8616 20.1005C42.0711 20.6547 42.3961 21.1581 42.8151 21.5771C43.2341 21.9961 43.7375 22.3211 44.2917 22.5306C44.846 22.7401 45.4384 22.8293 46.0298 22.7922L48.7023 22.5119C48.8244 22.5051 48.9466 22.5239 49.0611 22.5671C49.1755 22.6104 49.2796 22.677 49.3667 22.7629C49.4502 22.8481 49.5145 22.9501 49.5552 23.0622C49.596 23.1742 49.6123 23.2937 49.603 23.4126L49.3226 26.0851C49.2855 26.6764 49.3747 27.2689 49.5842 27.8231C49.7938 28.3774 50.1188 28.8807 50.5378 29.2997C50.9568 29.7187 51.4601 30.0438 52.0144 30.2533C52.5686 30.4628 53.1611 30.552 53.7525 30.5149L56.425 30.2346C56.5472 30.2278 56.6693 30.2466 56.7837 30.2898C56.8982 30.333 57.0024 30.3998 57.0895 30.4857C57.173 30.5708 57.2372 30.6729 57.278 30.7849C57.3188 30.897 57.335 31.0165 57.3258 31.1353L57.0454 33.8078C57.0083 34.3992 57.0975 34.9916 57.307 35.5459C57.5165 36.1002 57.8416 36.6035 58.2606 37.0225C58.6796 37.4415 59.1829 37.7665 59.7371 37.976C60.2914 38.1856 60.8839 38.2747 61.4752 38.2377L62.5236 38.1344L66.1408 34.5171L61.1649 34.9745C61.0458 34.9855 60.9258 34.9702 60.8133 34.9296C60.7008 34.8889 60.5987 34.824 60.5141 34.7394C60.4295 34.6548 60.3646 34.5527 60.3239 34.4402C60.2833 34.3277 60.268 34.2077 60.279 34.0886L60.5594 31.4161C60.6101 30.8169 60.5307 30.2138 60.3268 29.648C60.1229 29.0823 59.7993 28.5672 59.378 28.1381C58.9488 27.7168 58.4338 27.3931 57.868 27.1892C57.3023 26.9853 56.6992 26.906 56.1 26.9567L53.4275 27.237C53.3084 27.2481 53.1884 27.2327 53.0759 27.1921C52.9634 27.1515 52.8612 27.0865 52.7766 27.002C52.6921 26.9174 52.6271 26.8152 52.5865 26.7027C52.5459 26.5902 52.5305 26.4702 52.5415 26.3511L52.8219 23.6786C52.8726 23.0794 52.7933 22.4763 52.5894 21.9106C52.3855 21.3448 52.0618 20.8298 51.6405 20.4006C51.2114 19.9793 50.6963 19.6557 50.1306 19.4518C49.5648 19.2479 48.9617 19.1685 48.3625 19.2192L45.69 19.4996C45.5709 19.5106 45.4508 19.4952 45.3383 19.4546C45.2258 19.4139 45.1238 19.3491 45.0392 19.2645C44.9546 19.1799 44.8897 19.0778 44.849 18.9653C44.8084 18.8528 44.793 18.7327 44.804 18.6136L45.2615 13.6378" fill="#D2232A"/>
<path d="M71.5442 27.0754L52.9683 8.49957C52.0402 7.57142 50.7814 7.04995 49.4689 7.04987C48.1564 7.0498 46.8976 7.57112 45.9696 8.49916L27.4845 26.9842C26.8734 27.6011 26.4346 28.3675 26.2119 29.2068C25.9891 30.0462 25.9902 30.9292 26.215 31.7681L28.9028 41.5724L18.7594 47.7879C16.1855 49.3973 13.9831 51.5355 12.2981 54.0605C10.6131 56.5856 9.48403 59.44 8.9857 62.4346L8.38055 65.9929C8.25572 66.7521 8.31353 67.5302 8.54914 68.2626C8.78476 68.995 9.1914 69.6608 9.73546 70.2049C10.2795 70.749 10.9453 71.1556 11.6778 71.3912C12.4102 71.6268 13.1883 71.6846 13.9474 71.5598L17.5058 70.9547C20.5004 70.4563 23.3548 69.3272 25.8798 67.6422C28.4049 65.9573 30.5429 63.7548 32.1523 61.1808L38.427 51.1261L48.2165 53.7991C49.0554 54.024 49.9386 54.0251 50.7779 53.8024C51.6173 53.5796 52.3835 53.1408 53.0004 52.5296L71.4559 34.0741C71.9213 33.6204 72.2928 33.0795 72.5491 32.4822C72.8053 31.885 72.9415 31.2431 72.9497 30.5932C72.9579 29.9433 72.8379 29.2981 72.5968 28.6945C72.3556 28.0909 71.998 27.5408 71.5442 27.0754ZM50.7412 50.1818C50.5379 50.3845 50.2853 50.5306 50.0082 50.6057C49.7311 50.6808 49.4391 50.6822 49.1613 50.6099L39.3718 47.9369C38.6864 47.7509 37.9594 47.7897 37.2977 48.0475C36.636 48.3052 36.0744 48.7683 35.6953 49.3688L29.4355 59.4089C28.0736 61.5885 26.2632 63.453 24.1248 64.8786C21.9864 66.3041 19.5689 67.258 17.0331 67.6767L13.4747 68.2819C13.2328 68.324 12.9844 68.3071 12.7504 68.2325C12.5165 68.1579 12.304 68.0279 12.1311 67.8536C11.9596 67.6787 11.8314 67.466 11.7571 67.2327C11.6827 66.9993 11.6641 66.7518 11.7027 66.5099L12.3079 62.9515C12.7354 60.4188 13.6946 58.0055 15.1222 55.8704C16.5498 53.7352 18.4135 51.9268 20.5906 50.564L30.6158 44.2893C31.2209 43.918 31.6892 43.3602 31.9501 42.6999C32.211 42.0396 32.2505 41.3123 32.0625 40.6276L29.3895 30.8381C29.3147 30.5592 29.3134 30.2657 29.3859 29.9862C29.4583 29.7068 29.602 29.4508 29.8028 29.2434L31.3678 27.6784L52.3358 48.6463L50.7412 50.1818ZM69.1967 31.7263L64.1768 36.569L60.5448 40.2011L54.639 46.284L33.6711 25.316L48.2288 10.7583C48.5381 10.449 48.9577 10.2752 49.3952 10.2752C49.8327 10.2753 50.2523 10.4492 50.5617 10.7585L69.2114 29.4082C69.3639 29.5607 69.4846 29.7419 69.5665 29.9414C69.6484 30.1409 69.6899 30.3547 69.6886 30.5704C69.6872 30.786 69.643 30.9993 69.5586 31.1977C69.4742 31.3961 69.3511 31.5758 69.1967 31.7263V31.7263Z" fill="#262B44" stroke="#262B44" stroke-width="0.28" stroke-miterlimit="10"/>
</g>
<defs>
<clipPath id="clip0_475_530">
<rect width="80" height="80" fill="white"/>
</clipPath>
</defs>
</svg>
