<svg width="80" height="80" viewBox="0 0 80 80" fill="none" xmlns="http://www.w3.org/2000/svg">
<g clip-path="url(#clip0_864_934)">
<path d="M69.7991 36.6951H66.1619V12.1902C66.1619 10.1912 65.1409 8.64349 64.2795 8.64349H15.7198C14.8584 8.64349 13.8374 10.1912 13.8374 12.1902V36.6951H10.2002V12.1902C9.99238 10.4977 10.4565 8.79091 11.4909 7.44336C12.5254 6.09581 14.0459 5.21726 15.7198 5H64.2795C65.9534 5.21726 67.4739 6.09581 68.5084 7.44336C69.5428 8.79091 70.0069 10.4977 69.7991 12.1902V36.6951Z" fill="white"/>
<path d="M37.4794 38.5329H21.5268C20.3845 38.5329 19.289 38.0743 18.4812 37.258C17.6734 36.4417 17.2197 35.3345 17.2197 34.1801V29.1824C17.2025 28.5973 17.3023 28.0147 17.513 27.4694C17.7238 26.9242 18.0412 26.4275 18.4463 26.0091C18.8514 25.5907 19.3358 25.2592 19.8706 25.0343C20.4054 24.8095 20.9796 24.696 21.5588 24.7006H37.5114C38.0812 24.7006 38.6454 24.814 39.1719 25.0344C39.6983 25.2547 40.1767 25.5777 40.5796 25.9849C40.9825 26.3921 41.3021 26.8755 41.5202 27.4076C41.7382 27.9396 41.8505 28.5098 41.8505 29.0857V34.0833C41.859 34.6673 41.752 35.2471 41.5358 35.7888C41.3195 36.3304 40.9984 36.8229 40.5912 37.2374C40.184 37.6519 39.699 37.98 39.1647 38.2024C38.6303 38.4249 38.0574 38.5373 37.4794 38.5329V38.5329ZM21.5268 28.473C21.3407 28.473 21.1621 28.5478 21.0305 28.6808C20.8989 28.8138 20.825 28.9942 20.825 29.1824V34.1801C20.825 34.3682 20.8989 34.5486 21.0305 34.6817C21.1621 34.8147 21.3407 34.8894 21.5268 34.8894H37.4794C37.6656 34.8894 37.8441 34.8147 37.9758 34.6817C38.1074 34.5486 38.1814 34.3682 38.1814 34.1801V29.1824C38.1814 28.9942 38.1074 28.8138 37.9758 28.6808C37.8441 28.5478 37.6656 28.473 37.4794 28.473H21.5268Z" fill="#D2232A"/>
<path d="M58.4417 38.5328H42.4891C41.3438 38.5328 40.2449 38.0752 39.4321 37.2598C38.6193 36.4444 38.1584 35.3373 38.15 34.1799V29.1822C38.1372 28.5956 38.241 28.0123 38.4553 27.4669C38.6696 26.9215 38.9901 26.4252 39.3977 26.0072C39.8053 25.5893 40.2918 25.2583 40.8283 25.0338C41.3648 24.8093 41.9403 24.696 42.521 24.7004H58.4736C59.0419 24.7004 59.6046 24.8141 60.1293 25.0348C60.654 25.2556 61.1302 25.5791 61.5306 25.9867C61.9309 26.3944 62.2475 26.878 62.4621 27.4099C62.6767 27.9417 62.785 28.5112 62.7808 29.0855V34.0832C62.7936 34.6657 62.6906 35.2448 62.4779 35.7862C62.2652 36.3277 61.9471 36.8205 61.5425 37.2354C61.1378 37.6504 60.6549 37.979 60.1222 38.2019C59.5896 38.4247 59.0181 38.5372 58.4417 38.5328V38.5328ZM42.4891 28.4729C42.3029 28.4729 42.1244 28.5476 41.9928 28.6807C41.8611 28.8137 41.7872 28.9941 41.7872 29.1822V34.1799C41.7872 34.3681 41.8611 34.5485 41.9928 34.6815C42.1244 34.8146 42.3029 34.8893 42.4891 34.8893H58.4417C58.6278 34.8893 58.8064 34.8146 58.938 34.6815C59.0696 34.5485 59.1436 34.3681 59.1436 34.1799V29.1822C59.1436 28.9941 59.0696 28.8137 58.938 28.6807C58.8064 28.5476 58.6278 28.4729 58.4417 28.4729H42.4891Z" fill="#D2232A"/>
<path d="M66.8961 62.5543H13.1039C10.9546 62.5543 8.89334 61.6914 7.37356 60.1555C5.85378 58.6197 5 56.5366 5 54.3645V43.1761C5 41.004 5.85378 38.9209 7.37356 37.3851C8.89334 35.8492 10.9546 34.9863 13.1039 34.9863H66.8961C69.0454 34.9863 71.1066 35.8492 72.6264 37.3851C74.1462 38.9209 75 41.004 75 43.1761V54.3645C75 56.5366 74.1462 58.6197 72.6264 60.1555C71.1066 61.6914 69.0454 62.5543 66.8961 62.5543V62.5543ZM13.1039 38.4363C11.86 38.4363 10.6671 38.9357 9.78753 39.8246C8.90797 40.7135 8.41388 41.919 8.41388 43.1761V54.3645C8.41388 55.6216 8.90797 56.8271 9.78753 57.716C10.6671 58.6049 11.86 59.1042 13.1039 59.1042H66.8961C68.1399 59.1042 69.3329 58.6049 70.2125 57.716C71.092 56.8271 71.5861 55.6216 71.5861 54.3645V43.1761C71.5861 41.919 71.092 40.7135 70.2125 39.8246C69.3329 38.9357 68.1399 38.4363 66.8961 38.4363H13.1039Z" fill="white"/>
<path d="M14.061 60.8452H10.009V75H14.061V60.8452Z" fill="white"/>
<path d="M70.0227 60.8452H65.9707V75H70.0227V60.8452Z" fill="white"/>
</g>
<defs>
<clipPath id="clip0_864_934">
<rect width="70" height="70" fill="white" transform="translate(5 5)"/>
</clipPath>
</defs>
</svg>
