<svg width="80" height="80" viewBox="0 0 80 80" fill="none" xmlns="http://www.w3.org/2000/svg">
<g clip-path="url(#clip0_855_843)">
<path d="M66.3074 58.1782C66.1016 58.921 65.7478 59.6144 65.2672 60.2169C64.7866 60.8195 64.1891 61.3187 63.5107 61.6845V65.1594C63.508 65.8661 63.2253 66.5429 62.7246 67.0417C62.2239 67.5404 61.5461 67.8204 60.8394 67.8204H45.4786C45.1558 66.6027 44.4328 65.5289 43.4258 64.7718C42.4189 64.0147 41.1865 63.6183 39.927 63.6463C32.4762 63.9489 32.4762 74.7077 39.927 74.9999C41.186 75.0261 42.4175 74.6289 43.424 73.8721C44.4306 73.1153 45.1541 72.0426 45.4786 70.8258H60.8394C62.3431 70.8258 63.7855 70.2291 64.8498 69.1668C65.9141 68.1044 66.5133 66.6632 66.5161 65.1594V58.1782H66.3074ZM42.661 69.3962C42.6186 70.0745 42.3192 70.7111 41.8238 71.1764C41.3285 71.6417 40.6745 71.9007 39.9949 71.9007C39.3152 71.9007 38.6611 71.6417 38.1658 71.1764C37.6704 70.7111 37.371 70.0745 37.3286 69.3962C37.3058 69.032 37.3579 68.667 37.4816 68.3238C37.6053 67.9805 37.7979 67.6662 38.0477 67.4002C38.2975 67.1343 38.5993 66.9224 38.9341 66.7775C39.269 66.6326 39.63 66.5578 39.9949 66.5578C40.3597 66.5578 40.7207 66.6326 41.0556 66.7775C41.3905 66.9224 41.6921 67.1343 41.9419 67.4002C42.1917 67.6662 42.3845 67.9805 42.5082 68.3238C42.6318 68.667 42.6838 69.032 42.661 69.3962" fill="#D2232A"/>
<path d="M69.3232 34.2919H66.516V31.6309C66.586 28.1038 65.9518 24.5982 64.6504 21.3192C63.349 18.0402 61.4066 15.0538 58.9369 12.5346C56.4673 10.0155 53.52 8.01425 50.2674 6.64808C47.0149 5.28191 43.5226 4.57825 39.9948 4.57825C36.467 4.57825 32.9747 5.28191 29.7222 6.64808C26.4697 8.01425 23.5222 10.0155 21.0526 12.5346C18.5829 15.0538 16.6405 18.0402 15.3391 21.3192C14.0377 24.5982 13.4035 28.1038 13.4735 31.6309V34.2919H10.6664C9.16265 34.2946 7.7214 34.8939 6.65905 35.9583C5.5967 37.0226 5 38.4649 5 39.9687V52.491C5.00276 53.993 5.60069 55.4327 6.66274 56.4947C7.7248 57.5568 9.16446 58.1547 10.6664 58.1574H13.6821C14.0425 59.4838 14.8728 60.6339 16.0182 61.3937C17.1636 62.1534 18.546 62.471 19.9081 62.2872C21.2702 62.1033 22.5191 61.4307 23.4222 60.3945C24.3252 59.3583 24.8207 58.0292 24.8166 56.6547V35.7841C24.8196 34.8027 24.5677 33.8373 24.0854 32.9825C23.6032 32.1277 22.9072 31.4128 22.0656 30.9078C21.224 30.4029 20.2658 30.1252 19.2846 30.1019C18.3034 30.0787 17.3329 30.3107 16.4684 30.7752C16.7238 24.7193 19.3091 18.9963 23.6844 14.8017C28.0597 10.607 33.8866 8.26509 39.9478 8.26509C46.009 8.26509 51.8359 10.607 56.2112 14.8017C60.5865 18.9963 63.1718 24.7193 63.4272 30.7752C62.5627 30.3107 61.5923 30.0787 60.6112 30.1019C59.63 30.1252 58.6716 30.4029 57.83 30.9078C56.9884 31.4128 56.2924 32.1277 55.8102 32.9825C55.3279 33.8373 55.076 34.8027 55.079 35.7841V56.6547C55.0749 58.0292 55.5705 59.3583 56.4735 60.3945C57.3765 61.4307 58.6254 62.1033 59.9875 62.2872C61.3496 62.471 62.7321 62.1534 63.8775 61.3937C65.0229 60.6339 65.8531 59.4838 66.2135 58.1574H69.2293C70.7313 58.1547 72.1709 57.5568 73.233 56.4947C74.2951 55.4327 74.8929 53.993 74.8956 52.491V39.9687C74.8956 38.4649 74.299 37.0226 73.2367 35.9583C72.1743 34.8939 70.7331 34.2946 69.2293 34.2919H69.3232ZM7.91149 52.4806V39.9582C7.91148 39.2515 8.19145 38.5736 8.69019 38.0729C9.18892 37.5722 9.86572 37.2896 10.5724 37.2868H13.3796V55.1625H10.5724C9.86667 55.1625 9.18986 54.8821 8.69082 54.3831C8.19179 53.884 7.91149 53.2072 7.91149 52.5015V52.4806ZM19.0563 33.1544C19.7621 33.1544 20.4389 33.4348 20.9379 33.9338C21.4369 34.4329 21.7174 35.1097 21.7174 35.8154V56.686C21.7402 57.0502 21.6881 57.4152 21.5644 57.7584C21.4407 58.1017 21.2481 58.416 20.9983 58.6819C20.7485 58.9479 20.4468 59.1598 20.1119 59.3047C19.7771 59.4496 19.416 59.5244 19.0511 59.5244C18.6862 59.5244 18.3252 59.4496 17.9904 59.3047C17.6555 59.1598 17.3538 58.9479 17.104 58.6819C16.8542 58.416 16.6615 58.1017 16.5378 57.7584C16.4141 57.4152 16.3622 57.0502 16.3849 56.686V35.8154C16.3877 35.1087 16.6703 34.4319 17.171 33.9332C17.6717 33.4345 18.3496 33.1544 19.0563 33.1544V33.1544ZM60.7975 59.3366C60.0908 59.3338 59.414 59.0512 58.9153 58.5505C58.4166 58.0498 58.1366 57.3719 58.1366 56.6652V35.7946C58.179 35.1163 58.4784 34.4797 58.9738 34.0143C59.4691 33.549 60.1231 33.29 60.8027 33.29C61.4824 33.29 62.1365 33.549 62.6318 34.0143C63.1272 34.4797 63.4266 35.1163 63.469 35.7946V56.6652C63.469 57.3737 63.1875 58.0532 62.6865 58.5541C62.1855 59.0551 61.506 59.3366 60.7975 59.3366V59.3366ZM71.9425 52.5015C71.9425 53.2072 71.662 53.884 71.163 54.3831C70.664 54.8821 69.9872 55.1625 69.2814 55.1625H66.4744V37.3181H69.2814C69.9881 37.3209 70.6649 37.6035 71.1636 38.1042C71.6624 38.6049 71.9425 39.2828 71.9425 39.9895V52.5015Z" fill="#262B44"/>
</g>
<defs>
<clipPath id="clip0_855_843">
<rect width="70" height="70" fill="white" transform="translate(5 5)"/>
</clipPath>
</defs>
</svg>
