<svg width="82" height="86" viewBox="0 0 82 86" fill="none" xmlns="http://www.w3.org/2000/svg">
<line x1="41.5" y1="25.5" x2="41.5" y2="2.5" stroke="#D2232A" stroke-width="5" stroke-linecap="round"/>
<path fill-rule="evenodd" clip-rule="evenodd" d="M48.9141 76.8889C51.2366 74.9698 52.6581 72.4545 52.6581 69.7195H58.4873C58.4873 74.6073 55.9345 78.65 52.6268 81.3824C49.342 84.0966 45.0547 85.7498 40.9997 85.7498C37.0064 85.7498 32.7211 84.2508 29.4 81.5731C26.0365 78.8608 23.5121 74.7999 23.5121 69.7195H29.3413C29.3413 72.7102 30.7915 75.2071 33.0587 77.0353C35.3682 78.8973 38.3688 79.9206 40.9997 79.9206C43.5682 79.9206 46.5681 78.827 48.9141 76.8889Z" fill="#D2232A"/>
<path fill-rule="evenodd" clip-rule="evenodd" d="M58.4873 40.573C58.4873 42.1825 57.1823 43.4876 55.5727 43.4876H26.4267C24.8172 43.4876 23.5121 42.1825 23.5121 40.573V31.8292C23.5121 28.6101 26.1223 26 29.3413 26H52.6581C55.8772 26 58.4873 28.6101 58.4873 31.8292V40.573ZM52.6581 37.6584V31.8292H29.3413V37.6584H52.6581Z" fill="#262B44"/>
<path fill-rule="evenodd" clip-rule="evenodd" d="M80.3768 63.0153C83.6518 66.7978 80.9317 72.6342 75.8936 72.6342H6.10647C1.06838 72.6342 -1.65169 66.7978 1.62332 63.0153L22.6984 38.6793C23.2585 38.032 24.0776 37.6592 24.9396 37.6592H57.0618C57.9238 37.6592 58.743 38.032 59.3031 38.6793L80.3768 63.0153ZM6.1078 66.805H75.895L55.7043 43.4882H26.3001L6.1078 66.805Z" fill="#262B44"/>
</svg>
