<svg width="80" height="80" viewBox="0 0 80 80" fill="none" xmlns="http://www.w3.org/2000/svg">
<g clip-path="url(#clip0_864_948)">
<path d="M73.6269 61.7734H19C18.6429 61.7734 18.3006 61.6329 18.0481 61.3828C17.7957 61.1328 17.6538 60.7936 17.6538 60.44V6.33333C17.6538 5.97971 17.7957 5.64059 18.0481 5.39054C18.3006 5.1405 18.6429 5 19 5H73.6269C73.9839 5 74.3263 5.1405 74.5788 5.39054C74.8312 5.64059 74.9731 5.97971 74.9731 6.33333V60.44C74.9731 60.7936 74.8312 61.1328 74.5788 61.3828C74.3263 61.6329 73.9839 61.7734 73.6269 61.7734ZM20.3461 59.1067H72.2808V7.66667H20.3461V59.1067Z" fill="white"/>
<path d="M37.7658 42.84C37.4088 42.84 37.0664 42.6995 36.814 42.4495C36.5615 42.1994 36.4197 41.8603 36.4197 41.5067V6.33333C36.4197 5.97971 36.5615 5.64059 36.814 5.39054C37.0664 5.1405 37.4088 5 37.7658 5C38.1229 5 38.4652 5.1405 38.7177 5.39054C38.9701 5.64059 39.112 5.97971 39.112 6.33333V41.4C39.1269 41.5839 39.1031 41.7688 39.0421 41.9431C38.9812 42.1174 38.8844 42.2772 38.7579 42.4126C38.6313 42.5479 38.4779 42.6558 38.3071 42.7293C38.1364 42.8029 37.952 42.8406 37.7658 42.84Z" fill="white"/>
<path d="M9.68502 54.1203C9.328 54.1203 8.98562 53.9798 8.73317 53.7297C8.48071 53.4797 8.33887 53.1406 8.33887 52.7869V12.3869C8.33887 12.0333 8.48071 11.6941 8.73317 11.4441C8.98562 11.194 9.328 11.0536 9.68502 11.0536C10.042 11.0536 10.3844 11.194 10.6369 11.4441C10.8893 11.6941 11.0312 12.0333 11.0312 12.3869V52.7869C11.0312 53.1406 10.8893 53.4797 10.6369 53.7297C10.3844 53.9798 10.042 54.1203 9.68502 54.1203Z" fill="#D2232A"/>
<path d="M37.7658 61.7735C37.4088 61.7735 37.0664 61.633 36.814 61.3829C36.5615 61.1329 36.4197 60.7938 36.4197 60.4401V49.6401C36.4197 49.2865 36.5615 48.9474 36.814 48.6973C37.0664 48.4473 37.4088 48.3068 37.7658 48.3068C38.1229 48.3068 38.4652 48.4473 38.7177 48.6973C38.9701 48.9474 39.112 49.2865 39.112 49.6401V60.4401C39.112 60.7938 38.9701 61.1329 38.7177 61.3829C38.4652 61.633 38.1229 61.7735 37.7658 61.7735Z" fill="white"/>
<path d="M61.1082 34.84H37.7658C37.4088 34.84 37.0664 34.6995 36.814 34.4495C36.5615 34.1994 36.4197 33.8603 36.4197 33.5067C36.4197 33.1531 36.5615 32.8139 36.814 32.5639C37.0664 32.3138 37.4088 32.1733 37.7658 32.1733H61.1082C61.4652 32.1733 61.8076 32.3138 62.06 32.5639C62.3125 32.8139 62.4543 33.1531 62.4543 33.5067C62.4474 33.8582 62.3034 34.1934 62.0524 34.4419C61.8014 34.6905 61.463 34.8332 61.1082 34.84Z" fill="white"/>
<path d="M73.1423 34.84H66.1423C65.7874 34.8332 65.449 34.6905 65.198 34.4419C64.947 34.1934 64.803 33.8582 64.7961 33.5067C64.7961 33.1531 64.938 32.8139 65.1904 32.5639C65.4429 32.3138 65.7853 32.1733 66.1423 32.1733H73.1423C73.4993 32.1733 73.8417 32.3138 74.0942 32.5639C74.3466 32.8139 74.4885 33.1531 74.4885 33.5067C74.4885 33.8603 74.3466 34.1994 74.0942 34.4495C73.8417 34.6995 73.4993 34.84 73.1423 34.84Z" fill="white"/>
<path d="M13.0768 13.72H6.31914C6.08765 13.7193 5.86059 13.6572 5.66168 13.5399C5.46276 13.4226 5.29926 13.2546 5.18834 13.0533C5.06402 12.8576 4.99805 12.6312 4.99805 12.4C4.99805 12.1688 5.06402 11.9423 5.18834 11.7466L8.4999 5.69332C8.60878 5.47688 8.77858 5.29624 8.98877 5.17322C9.19897 5.0502 9.44059 4.99002 9.68453 4.99996C9.92611 5.00209 10.1628 5.06731 10.3708 5.18905C10.5788 5.31078 10.7507 5.48475 10.8691 5.69332L14.2884 11.72C14.4065 11.9227 14.4687 12.1526 14.4687 12.3866C14.4687 12.6207 14.4065 12.8506 14.2884 13.0533C14.1664 13.2628 13.9893 13.4355 13.7759 13.5529C13.5625 13.6704 13.3208 13.7281 13.0768 13.72V13.72ZM8.60762 11.0533H10.7884L9.68453 9.07996L8.60762 11.0533Z" fill="#D2232A"/>
<path d="M9.76488 61.7734C9.5254 61.7767 9.28936 61.7167 9.08112 61.5995C8.87289 61.4823 8.69999 61.3122 8.58026 61.1068L5.16106 55.0534C5.04291 54.8507 4.98071 54.6208 4.98071 54.3867C4.98071 54.1527 5.04291 53.9227 5.16106 53.7201C5.28379 53.5253 5.45432 53.3644 5.65675 53.2525C5.85918 53.1406 6.08691 53.0813 6.31873 53.0801H13.0764C13.3104 53.0794 13.5406 53.1393 13.7441 53.2536C13.9477 53.3679 14.1176 53.5328 14.2372 53.732C14.3568 53.9312 14.4219 54.1578 14.4261 54.3896C14.4302 54.6213 14.3733 54.8501 14.261 55.0534L10.9495 61.0801C10.8333 61.2905 10.6619 61.466 10.4534 61.588C10.2449 61.71 10.007 61.7741 9.76488 61.7734V61.7734ZM8.63408 55.7467L9.73793 57.6934L10.8148 55.7467H8.63408Z" fill="#D2232A"/>
<path d="M67.3 71.6133H26.4846C26.1276 71.6133 25.7852 71.4728 25.5327 71.2228C25.2803 70.9727 25.1384 70.6336 25.1384 70.28C25.1384 69.9264 25.2803 69.5872 25.5327 69.3371C25.7852 69.0871 26.1276 68.9467 26.4846 68.9467H67.3C67.657 68.9467 67.9994 69.0871 68.2518 69.3371C68.5043 69.5872 68.6461 69.9264 68.6461 70.28C68.6461 70.6336 68.5043 70.9727 68.2518 71.2228C67.9994 71.4728 67.657 71.6133 67.3 71.6133Z" fill="#D2232A"/>
<path d="M67.3 75C67.0553 74.992 66.8157 74.9281 66.6 74.8133C66.4033 74.6917 66.241 74.5228 66.128 74.3223C66.015 74.1218 65.9551 73.8962 65.9539 73.6666V66.9733C65.9525 66.7432 66.0113 66.5166 66.1245 66.3157C66.2378 66.1148 66.4016 65.9463 66.6 65.8266C66.7996 65.7093 67.0275 65.6473 67.2596 65.6473C67.4917 65.6473 67.7197 65.7093 67.9193 65.8266L74.0308 69.1333C74.2431 69.2417 74.4208 69.4063 74.5444 69.6087C74.668 69.8111 74.7325 70.0435 74.7308 70.28C74.7342 70.5172 74.6735 70.751 74.5552 70.9572C74.4369 71.1635 74.2652 71.3347 74.0578 71.4533L67.9731 74.84C67.7698 74.9585 67.5355 75.0142 67.3 75V75ZM68.6462 69.2133V71.3733L70.6116 70.28L68.6462 69.2133Z" fill="#D2232A"/>
<path d="M24.8961 75C24.6706 75.0012 24.4485 74.9461 24.25 74.84L18.1384 71.5334C17.926 71.4183 17.7488 71.2485 17.6256 71.042C17.5025 70.8355 17.4378 70.5999 17.4385 70.3601C17.4406 70.1208 17.5064 69.8863 17.6293 69.6803C17.7523 69.4743 17.9278 69.304 18.1384 69.1867L24.2231 65.8C24.4294 65.688 24.6609 65.6293 24.8961 65.6293C25.1314 65.6293 25.3629 65.688 25.5692 65.8C25.7727 65.9163 25.9418 66.0835 26.0599 66.2846C26.178 66.4858 26.2409 66.7141 26.2423 66.9467V73.64C26.2409 73.8727 26.178 74.101 26.0599 74.3021C25.9418 74.5033 25.7727 74.6704 25.5692 74.7867C25.3655 74.9106 25.1346 74.9838 24.8961 75ZM21.5577 70.3334L23.55 71.4V69.24L21.5577 70.3334Z" fill="#D2232A"/>
</g>
<defs>
<clipPath id="clip0_864_948">
<rect width="70" height="70" fill="white" transform="translate(5 5)"/>
</clipPath>
</defs>
</svg>
