<svg width="86" height="86" viewBox="0 0 86 86" fill="none" xmlns="http://www.w3.org/2000/svg">
<path d="M11.2471 43H24.0305" stroke="#D2232A" stroke-width="5" stroke-miterlimit="10"/>
<path d="M36.8145 42.9996H43V28.1543" stroke="#D2232A" stroke-width="5" stroke-miterlimit="10"/>
<path d="M24.0312 43H36.8147" stroke="#D2232A" stroke-width="5" stroke-miterlimit="10"/>
<path d="M3 63.7628L11.1679 83H24.0308L7.05168 43H3.00061L3 63.7628Z" stroke="#D2232A" stroke-width="5" stroke-miterlimit="10"/>
<path d="M3 82.9996H11.2474L3 63.6182V82.9996Z" stroke="#D2232A" stroke-width="5" stroke-miterlimit="10"/>
<path d="M42.9999 82.9997V68.005L32.562 43H19.9072L36.6089 83L42.9999 82.9997Z" stroke="#D2232A" stroke-width="5" stroke-miterlimit="10"/>
<path d="M42.9997 43H32.6904L42.9997 68.1546V43Z" stroke="#D2232A" stroke-width="5" stroke-miterlimit="10"/>
<path d="M36.8151 83L19.9222 43H7.12451L24.0175 83H36.8151Z" stroke="#D2232A" stroke-width="5" stroke-miterlimit="10"/>
<path d="M43 23.7628L51.1669 43H64.0308L47.0518 3H43.0008L43 23.7628Z" stroke="#D2232A" stroke-width="5" stroke-miterlimit="10"/>
<path d="M43 43.0008H51.2474L43 24.0317V43.0008Z" stroke="#D2232A" stroke-width="5" stroke-miterlimit="10"/>
<path d="M82.9999 43V28.0034L72.5605 3H59.9072L76.6097 42.9998L82.9999 43Z" stroke="#D2232A" stroke-width="5" stroke-miterlimit="10"/>
<path d="M82.9997 3H72.6904L82.9997 28.1546V3Z" stroke="#D2232A" stroke-width="5" stroke-miterlimit="10"/>
<path d="M76.4023 43L59.7433 3H47.124L63.7815 43H76.4023Z" stroke="#D2232A" stroke-width="5" stroke-miterlimit="10"/>
<rect x="3" y="3" width="79.9997" height="79.9999" stroke="#262B44" stroke-width="5"/>
</svg>
