<svg width="80" height="80" viewBox="0 0 80 80" fill="none" xmlns="http://www.w3.org/2000/svg">
<g clip-path="url(#clip0_615_749)">
<path d="M29.2053 24.685H21.7595C21.4042 24.685 21.0635 24.5268 20.8123 24.245C20.561 23.9633 20.4199 23.5812 20.4199 23.1827C20.4199 22.7843 20.561 22.4023 20.8123 22.1205C21.0635 21.8388 21.4042 21.6805 21.7595 21.6805H29.1879C29.5432 21.6805 29.884 21.8388 30.1352 22.1205C30.3864 22.4023 30.5275 22.7843 30.5275 23.1827C30.5275 23.5812 30.3864 23.9633 30.1352 24.245C29.884 24.5268 29.5432 24.685 29.1879 24.685" fill="#D2232A"/>
<path d="M43.4186 33.0253H21.7595C21.4042 33.0253 21.0635 32.8671 20.8123 32.5854C20.561 32.3036 20.4199 31.9216 20.4199 31.5231C20.4199 31.1247 20.561 30.7426 20.8123 30.4609C21.0635 30.1791 21.4042 30.0209 21.7595 30.0209H43.4186C43.7739 30.0209 44.1146 30.1791 44.3658 30.4609C44.6171 30.7426 44.7582 31.1247 44.7582 31.5231C44.7582 31.9216 44.6171 32.3036 44.3658 32.5854C44.1146 32.8671 43.7739 33.0253 43.4186 33.0253" fill="#262B44"/>
<path d="M43.4186 41.3755H21.7595C21.4042 41.3755 21.0635 41.2172 20.8123 40.9355C20.561 40.6537 20.4199 40.2717 20.4199 39.8732C20.4199 39.4748 20.561 39.0927 20.8123 38.811C21.0635 38.5292 21.4042 38.371 21.7595 38.371H43.4186C43.7739 38.371 44.1146 38.5292 44.3658 38.811C44.6171 39.0927 44.7582 39.4748 44.7582 39.8732C44.7582 40.2717 44.6171 40.6537 44.3658 40.9355C44.1146 41.2172 43.7739 41.3755 43.4186 41.3755" fill="#D2232A"/>
<path d="M43.4186 49.706H21.7595C21.4042 49.706 21.0635 49.5477 20.8123 49.266C20.561 48.9842 20.4199 48.6022 20.4199 48.2037C20.4199 47.8053 20.561 47.4232 20.8123 47.1415C21.0635 46.8598 21.4042 46.7015 21.7595 46.7015H43.4186C43.7739 46.7015 44.1146 46.8598 44.3658 47.1415C44.6171 47.4232 44.7582 47.8053 44.7582 48.2037C44.7582 48.6022 44.6171 48.9842 44.3658 49.266C44.1146 49.5477 43.7739 49.706 43.4186 49.706" fill="#262B44"/>
<path d="M65.6604 21.6806H59.5715V14.8523C59.5715 14.6542 59.5366 14.458 59.4687 14.2751C59.4009 14.0922 59.3014 13.9262 59.1761 13.7866C59.0508 13.647 58.9021 13.5365 58.7386 13.4616C58.575 13.3867 58.3999 13.3488 58.2233 13.3501H48.1157L41.0699 5.44868C40.9454 5.30925 40.7975 5.19874 40.6348 5.12342C40.4721 5.0481 40.2978 5.00944 40.1218 5.00971H14.3395C13.9843 5.00971 13.6436 5.16803 13.3923 5.44975C13.1411 5.73148 13 6.11356 13 6.51197V56.8269C13 57.2253 13.1411 57.6074 13.3923 57.8891C13.6436 58.1709 13.9843 58.3291 14.3395 58.3291H20.4285V65.1574C20.4285 65.5559 20.5696 65.9379 20.8209 66.2197C21.0721 66.5014 21.4128 66.6597 21.7681 66.6597H27.857V73.488C27.857 73.8864 27.9981 74.2685 28.2493 74.5502C28.5005 74.832 28.8412 74.9902 29.1965 74.9902H65.6344C65.9904 74.9902 66.332 74.8323 66.5846 74.5508C66.8372 74.2694 66.9803 73.8873 66.9826 73.488V23.1828C66.9803 22.7835 66.8372 22.4014 66.5846 22.12C66.332 21.8385 65.9904 21.6806 65.6344 21.6806H65.6604ZM48.7593 18.3445H40.9307V9.56521L48.7593 18.3445ZM15.6704 8.00442H38.2864V19.8467C38.2864 20.2451 38.4275 20.6272 38.6788 20.9089C38.93 21.1906 39.2707 21.3489 39.626 21.3489H49.4378V55.3149H15.6704V8.00442ZM23.1076 58.3194H50.7687C50.9453 58.3206 51.1204 58.2828 51.284 58.2078C51.4475 58.1329 51.5962 58.0225 51.7216 57.8828C51.8469 57.7432 51.9463 57.5772 52.0141 57.3943C52.082 57.2114 52.117 57.0153 52.117 56.8172V18.4615C52.1142 18.0617 51.9703 17.6794 51.7168 17.3982L50.7861 16.3448H56.875V63.6552H23.1163L23.1076 58.3194ZM64.3122 71.976H30.5622V66.6402H58.2145C58.3912 66.6415 58.5663 66.6035 58.7298 66.5286C58.8934 66.4537 59.0421 66.3433 59.1674 66.2036C59.2927 66.064 59.3921 65.898 59.46 65.7151C59.5279 65.5322 59.5629 65.336 59.5628 65.1379V24.6851H64.3209L64.3122 71.976Z" fill="#262B44"/>
</g>
<defs>
<clipPath id="clip0_615_749">
<rect width="54" height="70" fill="white" transform="translate(13 5)"/>
</clipPath>
</defs>
</svg>
