<svg width="151" height="151" viewBox="0 0 151 151" fill="none" xmlns="http://www.w3.org/2000/svg">
<rect width="150.72" height="150.72" fill="white"/>
<path d="M39.1024 127.04C39.1024 127.707 38.9357 128.333 38.6024 128.92C38.2824 129.507 37.8024 130 37.1624 130.4C36.5357 130.8 35.7891 131.04 34.9224 131.12V132.74H33.6224V131.12C32.3691 131 31.3557 130.607 30.5824 129.94C29.8091 129.273 29.4224 128.393 29.4224 127.3H31.8624C31.9024 127.82 32.0691 128.253 32.3624 128.6C32.6557 128.933 33.0757 129.147 33.6224 129.24V124.84C32.7291 124.613 32.0024 124.387 31.4424 124.16C30.8824 123.92 30.4024 123.547 30.0024 123.04C29.6157 122.533 29.4224 121.84 29.4224 120.96C29.4224 119.853 29.8091 118.94 30.5824 118.22C31.3557 117.487 32.3691 117.06 33.6224 116.94V115.32H34.9224V116.94C36.0957 117.047 37.0357 117.42 37.7424 118.06C38.4624 118.687 38.8691 119.553 38.9624 120.66H36.5224C36.4824 120.247 36.3224 119.88 36.0424 119.56C35.7624 119.227 35.3891 119 34.9224 118.88V123.2C35.8157 123.413 36.5424 123.64 37.1024 123.88C37.6624 124.107 38.1357 124.473 38.5224 124.98C38.9091 125.473 39.1024 126.16 39.1024 127.04ZM31.7424 120.84C31.7424 121.387 31.9024 121.813 32.2224 122.12C32.5557 122.427 33.0224 122.673 33.6224 122.86V118.82C33.0491 118.887 32.5891 119.093 32.2424 119.44C31.9091 119.787 31.7424 120.253 31.7424 120.84ZM34.9224 129.24C35.5091 129.147 35.9691 128.913 36.3024 128.54C36.6357 128.153 36.8024 127.693 36.8024 127.16C36.8024 126.627 36.6357 126.213 36.3024 125.92C35.9824 125.613 35.5224 125.367 34.9224 125.18V129.24ZM45.2702 127.04C45.4035 127.707 45.6902 128.213 46.1302 128.56C46.5702 128.907 47.1635 129.08 47.9102 129.08C48.8569 129.08 49.5502 128.707 49.9902 127.96C50.4302 127.213 50.6502 125.94 50.6502 124.14C50.3302 124.593 49.8769 124.947 49.2902 125.2C48.7169 125.44 48.0902 125.56 47.4102 125.56C46.5435 125.56 45.7569 125.387 45.0502 125.04C44.3435 124.68 43.7835 124.153 43.3702 123.46C42.9702 122.753 42.7702 121.9 42.7702 120.9C42.7702 119.433 43.1969 118.267 44.0502 117.4C44.9169 116.52 46.1035 116.08 47.6102 116.08C49.4235 116.08 50.7102 116.687 51.4702 117.9C52.2435 119.1 52.6302 120.947 52.6302 123.44C52.6302 125.16 52.4835 126.567 52.1902 127.66C51.9102 128.753 51.4169 129.58 50.7102 130.14C50.0035 130.7 49.0235 130.98 47.7702 130.98C46.3435 130.98 45.2435 130.607 44.4702 129.86C43.6969 129.113 43.2635 128.173 43.1702 127.04H45.2702ZM47.8102 123.64C48.6102 123.64 49.2369 123.393 49.6902 122.9C50.1569 122.393 50.3902 121.727 50.3902 120.9C50.3902 119.98 50.1435 119.267 49.6502 118.76C49.1702 118.24 48.5102 117.98 47.6702 117.98C46.8302 117.98 46.1635 118.247 45.6702 118.78C45.1902 119.3 44.9502 119.987 44.9502 120.84C44.9502 121.653 45.1835 122.327 45.6502 122.86C46.1302 123.38 46.8502 123.64 47.8102 123.64ZM57.9655 127.04C58.0988 127.707 58.3855 128.213 58.8255 128.56C59.2655 128.907 59.8588 129.08 60.6055 129.08C61.5522 129.08 62.2455 128.707 62.6855 127.96C63.1255 127.213 63.3455 125.94 63.3455 124.14C63.0255 124.593 62.5722 124.947 61.9855 125.2C61.4122 125.44 60.7855 125.56 60.1055 125.56C59.2388 125.56 58.4522 125.387 57.7455 125.04C57.0388 124.68 56.4788 124.153 56.0655 123.46C55.6655 122.753 55.4655 121.9 55.4655 120.9C55.4655 119.433 55.8922 118.267 56.7455 117.4C57.6122 116.52 58.7988 116.08 60.3055 116.08C62.1188 116.08 63.4055 116.687 64.1655 117.9C64.9388 119.1 65.3255 120.947 65.3255 123.44C65.3255 125.16 65.1788 126.567 64.8855 127.66C64.6055 128.753 64.1122 129.58 63.4055 130.14C62.6988 130.7 61.7188 130.98 60.4655 130.98C59.0388 130.98 57.9388 130.607 57.1655 129.86C56.3922 129.113 55.9588 128.173 55.8655 127.04H57.9655ZM60.5055 123.64C61.3055 123.64 61.9322 123.393 62.3855 122.9C62.8522 122.393 63.0855 121.727 63.0855 120.9C63.0855 119.98 62.8388 119.267 62.3455 118.76C61.8655 118.24 61.2055 117.98 60.3655 117.98C59.5255 117.98 58.8588 118.247 58.3655 118.78C57.8855 119.3 57.6455 119.987 57.6455 120.84C57.6455 121.653 57.8788 122.327 58.3455 122.86C58.8255 123.38 59.5455 123.64 60.5055 123.64ZM67.8208 123.52C67.8208 121.213 68.2075 119.413 68.9808 118.12C69.7675 116.813 71.1142 116.16 73.0208 116.16C74.9275 116.16 76.2675 116.813 77.0408 118.12C77.8275 119.413 78.2208 121.213 78.2208 123.52C78.2208 125.853 77.8275 127.68 77.0408 129C76.2675 130.307 74.9275 130.96 73.0208 130.96C71.1142 130.96 69.7675 130.307 68.9808 129C68.2075 127.68 67.8208 125.853 67.8208 123.52ZM75.9808 123.52C75.9808 122.44 75.9075 121.527 75.7608 120.78C75.6275 120.033 75.3475 119.427 74.9208 118.96C74.4942 118.48 73.8608 118.24 73.0208 118.24C72.1808 118.24 71.5475 118.48 71.1208 118.96C70.6942 119.427 70.4075 120.033 70.2608 120.78C70.1275 121.527 70.0608 122.44 70.0608 123.52C70.0608 124.64 70.1275 125.58 70.2608 126.34C70.3942 127.1 70.6742 127.713 71.1008 128.18C71.5408 128.647 72.1808 128.88 73.0208 128.88C73.8608 128.88 74.4942 128.647 74.9208 128.18C75.3608 127.713 75.6475 127.1 75.7808 126.34C75.9142 125.58 75.9808 124.64 75.9808 123.52ZM81.8533 131.14C81.44 131.14 81.0933 131 80.8133 130.72C80.5333 130.44 80.3933 130.093 80.3933 129.68C80.3933 129.267 80.5333 128.92 80.8133 128.64C81.0933 128.36 81.44 128.22 81.8533 128.22C82.2533 128.22 82.5933 128.36 82.8733 128.64C83.1533 128.92 83.2933 129.267 83.2933 129.68C83.2933 130.093 83.1533 130.44 82.8733 130.72C82.5933 131 82.2533 131.14 81.8533 131.14ZM85.4575 123.52C85.4575 121.213 85.8442 119.413 86.6175 118.12C87.4042 116.813 88.7509 116.16 90.6575 116.16C92.5642 116.16 93.9042 116.813 94.6775 118.12C95.4642 119.413 95.8575 121.213 95.8575 123.52C95.8575 125.853 95.4642 127.68 94.6775 129C93.9042 130.307 92.5642 130.96 90.6575 130.96C88.7509 130.96 87.4042 130.307 86.6175 129C85.8442 127.68 85.4575 125.853 85.4575 123.52ZM93.6175 123.52C93.6175 122.44 93.5442 121.527 93.3975 120.78C93.2642 120.033 92.9842 119.427 92.5575 118.96C92.1309 118.48 91.4975 118.24 90.6575 118.24C89.8175 118.24 89.1842 118.48 88.7575 118.96C88.3309 119.427 88.0442 120.033 87.8975 120.78C87.7642 121.527 87.6975 122.44 87.6975 123.52C87.6975 124.64 87.7642 125.58 87.8975 126.34C88.0309 127.1 88.3109 127.713 88.7375 128.18C89.1775 128.647 89.8175 128.88 90.6575 128.88C91.4975 128.88 92.1309 128.647 92.5575 128.18C92.9975 127.713 93.2842 127.1 93.4175 126.34C93.5509 125.58 93.6175 124.64 93.6175 123.52ZM98.27 123.52C98.27 121.213 98.6567 119.413 99.43 118.12C100.217 116.813 101.563 116.16 103.47 116.16C105.377 116.16 106.717 116.813 107.49 118.12C108.277 119.413 108.67 121.213 108.67 123.52C108.67 125.853 108.277 127.68 107.49 129C106.717 130.307 105.377 130.96 103.47 130.96C101.563 130.96 100.217 130.307 99.43 129C98.6567 127.68 98.27 125.853 98.27 123.52ZM106.43 123.52C106.43 122.44 106.357 121.527 106.21 120.78C106.077 120.033 105.797 119.427 105.37 118.96C104.943 118.48 104.31 118.24 103.47 118.24C102.63 118.24 101.997 118.48 101.57 118.96C101.143 119.427 100.857 120.033 100.71 120.78C100.577 121.527 100.51 122.44 100.51 123.52C100.51 124.64 100.577 125.58 100.71 126.34C100.843 127.1 101.123 127.713 101.55 128.18C101.99 128.647 102.63 128.88 103.47 128.88C104.31 128.88 104.943 128.647 105.37 128.18C105.81 127.713 106.097 127.1 106.23 126.34C106.363 125.58 106.43 124.64 106.43 123.52ZM111.083 123.52C111.083 121.213 111.469 119.413 112.243 118.12C113.029 116.813 114.376 116.16 116.283 116.16C118.189 116.16 119.529 116.813 120.303 118.12C121.089 119.413 121.483 121.213 121.483 123.52C121.483 125.853 121.089 127.68 120.303 129C119.529 130.307 118.189 130.96 116.283 130.96C114.376 130.96 113.029 130.307 112.243 129C111.469 127.68 111.083 125.853 111.083 123.52ZM119.243 123.52C119.243 122.44 119.169 121.527 119.023 120.78C118.889 120.033 118.609 119.427 118.183 118.96C117.756 118.48 117.123 118.24 116.283 118.24C115.443 118.24 114.809 118.48 114.383 118.96C113.956 119.427 113.669 120.033 113.523 120.78C113.389 121.527 113.323 122.44 113.323 123.52C113.323 124.64 113.389 125.58 113.523 126.34C113.656 127.1 113.936 127.713 114.363 128.18C114.803 128.647 115.443 128.88 116.283 128.88C117.123 128.88 117.756 128.647 118.183 128.18C118.623 127.713 118.909 127.1 119.043 126.34C119.176 125.58 119.243 124.64 119.243 123.52Z" fill="#262B44"/>
<path d="M41.8279 38.2179C41.8279 36.8446 42.1279 35.6179 42.7279 34.5379C43.3279 33.4446 44.1479 32.5979 45.1879 31.9979C46.2279 31.3846 47.3879 31.0779 48.6679 31.0779C50.2279 31.0779 51.5612 31.4512 52.6679 32.1979C53.7879 32.9312 54.6012 33.9712 55.1079 35.3179H53.4679C53.0679 34.3712 52.4546 33.6312 51.6279 33.0979C50.8146 32.5646 49.8279 32.2979 48.6679 32.2979C47.6412 32.2979 46.7146 32.5379 45.8879 33.0179C45.0746 33.4979 44.4346 34.1912 43.9679 35.0979C43.5012 35.9912 43.2679 37.0312 43.2679 38.2179C43.2679 39.4046 43.5012 40.4446 43.9679 41.3379C44.4346 42.2312 45.0746 42.9179 45.8879 43.3979C46.7146 43.8779 47.6412 44.1179 48.6679 44.1179C49.8279 44.1179 50.8146 43.8579 51.6279 43.3379C52.4546 42.8046 53.0679 42.0712 53.4679 41.1379H55.1079C54.6012 42.4712 53.7879 43.5046 52.6679 44.2379C51.5479 44.9712 50.2146 45.3379 48.6679 45.3379C47.3879 45.3379 46.2279 45.0379 45.1879 44.4379C44.1479 43.8246 43.3279 42.9779 42.7279 41.8979C42.1279 40.8179 41.8279 39.5912 41.8279 38.2179ZM62.6776 45.3779C61.6509 45.3779 60.7243 45.1512 59.8976 44.6979C59.0843 44.2312 58.4376 43.5779 57.9576 42.7379C57.4909 41.8846 57.2576 40.8912 57.2576 39.7579C57.2576 38.6246 57.4976 37.6379 57.9776 36.7979C58.4576 35.9446 59.1109 35.2912 59.9376 34.8379C60.7643 34.3712 61.6909 34.1379 62.7176 34.1379C63.7443 34.1379 64.6709 34.3712 65.4976 34.8379C66.3376 35.2912 66.9909 35.9446 67.4576 36.7979C67.9376 37.6379 68.1776 38.6246 68.1776 39.7579C68.1776 40.8779 67.9376 41.8646 67.4576 42.7179C66.9776 43.5712 66.3176 44.2312 65.4776 44.6979C64.6376 45.1512 63.7043 45.3779 62.6776 45.3779ZM62.6776 44.1579C63.3976 44.1579 64.0643 43.9979 64.6776 43.6779C65.2909 43.3446 65.7843 42.8512 66.1576 42.1979C66.5443 41.5312 66.7376 40.7179 66.7376 39.7579C66.7376 38.7979 66.5509 37.9912 66.1776 37.3379C65.8043 36.6712 65.3109 36.1779 64.6976 35.8579C64.0843 35.5246 63.4176 35.3579 62.6976 35.3579C61.9776 35.3579 61.3109 35.5246 60.6976 35.8579C60.0843 36.1779 59.5909 36.6712 59.2176 37.3379C58.8576 37.9912 58.6776 38.7979 58.6776 39.7579C58.6776 40.7179 58.8576 41.5312 59.2176 42.1979C59.5909 42.8512 60.0776 43.3446 60.6776 43.6779C61.2909 43.9979 61.9576 44.1579 62.6776 44.1579ZM70.0896 39.7579C70.0896 38.6246 70.3163 37.6379 70.7696 36.7979C71.2229 35.9446 71.8496 35.2912 72.6496 34.8379C73.4496 34.3712 74.3629 34.1379 75.3896 34.1379C76.7363 34.1379 77.8429 34.4712 78.7096 35.1379C79.5896 35.8046 80.1563 36.7112 80.4096 37.8579H78.9096C78.7229 37.0712 78.3163 36.4579 77.6896 36.0179C77.0763 35.5646 76.3096 35.3379 75.3896 35.3379C74.6563 35.3379 73.9963 35.5046 73.4096 35.8379C72.8229 36.1712 72.3563 36.6712 72.0096 37.3379C71.6763 37.9912 71.5096 38.7979 71.5096 39.7579C71.5096 40.7179 71.6763 41.5312 72.0096 42.1979C72.3563 42.8646 72.8229 43.3646 73.4096 43.6979C73.9963 44.0312 74.6563 44.1979 75.3896 44.1979C76.3096 44.1979 77.0763 43.9779 77.6896 43.5379C78.3163 43.0846 78.7229 42.4579 78.9096 41.6579H80.4096C80.1563 42.7779 79.5896 43.6779 78.7096 44.3579C77.8296 45.0379 76.7229 45.3779 75.3896 45.3779C74.3629 45.3779 73.4496 45.1512 72.6496 44.6979C71.8496 44.2312 71.2229 43.5779 70.7696 42.7379C70.3163 41.8846 70.0896 40.8912 70.0896 39.7579ZM83.6952 32.2379C83.4152 32.2379 83.1752 32.1379 82.9752 31.9379C82.7752 31.7379 82.6752 31.4912 82.6752 31.1979C82.6752 30.9046 82.7752 30.6646 82.9752 30.4779C83.1752 30.2779 83.4152 30.1779 83.6952 30.1779C83.9752 30.1779 84.2152 30.2779 84.4152 30.4779C84.6152 30.6646 84.7152 30.9046 84.7152 31.1979C84.7152 31.4912 84.6152 31.7379 84.4152 31.9379C84.2152 32.1379 83.9752 32.2379 83.6952 32.2379ZM84.3952 34.2979V45.2179H82.9952V34.2979H84.3952ZM92.6856 34.0979C93.9922 34.0979 95.0589 34.5046 95.8856 35.3179C96.7122 36.1179 97.1256 37.2846 97.1256 38.8179V45.2179H95.7456V38.9779C95.7456 37.7912 95.4456 36.8846 94.8456 36.2579C94.2589 35.6312 93.4522 35.3179 92.4256 35.3179C91.3722 35.3179 90.5322 35.6512 89.9056 36.3179C89.2789 36.9846 88.9656 37.9646 88.9656 39.2579V45.2179H87.5656V34.2979H88.9656V36.1579C89.3122 35.4912 89.8122 34.9846 90.4656 34.6379C91.1189 34.2779 91.8589 34.0979 92.6856 34.0979ZM99.5818 39.7379C99.5818 38.6179 99.8018 37.6379 100.242 36.7979C100.695 35.9446 101.315 35.2912 102.102 34.8379C102.902 34.3712 103.802 34.1379 104.802 34.1379C105.842 34.1379 106.735 34.3779 107.482 34.8579C108.242 35.3379 108.788 35.9512 109.122 36.6979V34.2979H110.522V45.2179H109.122V42.7979C108.775 43.5446 108.222 44.1646 107.462 44.6579C106.715 45.1379 105.822 45.3779 104.782 45.3779C103.795 45.3779 102.902 45.1446 102.102 44.6779C101.315 44.2112 100.695 43.5512 100.242 42.6979C99.8018 41.8446 99.5818 40.8579 99.5818 39.7379ZM109.122 39.7579C109.122 38.8779 108.942 38.1046 108.582 37.4379C108.222 36.7712 107.728 36.2579 107.102 35.8979C106.488 35.5379 105.808 35.3579 105.062 35.3579C104.288 35.3579 103.595 35.5312 102.982 35.8779C102.368 36.2246 101.882 36.7312 101.522 37.3979C101.175 38.0512 101.002 38.8312 101.002 39.7379C101.002 40.6312 101.175 41.4179 101.522 42.0979C101.882 42.7646 102.368 43.2779 102.982 43.6379C103.595 43.9846 104.288 44.1579 105.062 44.1579C105.808 44.1579 106.488 43.9779 107.102 43.6179C107.728 43.2579 108.222 42.7446 108.582 42.0779C108.942 41.4112 109.122 40.6379 109.122 39.7579Z" fill="#262B44"/>
<path d="M97.5342 63.4637H52.9229V101.068H97.5342V63.4637Z" stroke="#262B44" stroke-width="2" stroke-linecap="round" stroke-linejoin="round"/>
<path d="M88.8047 77.0289V87.5024" stroke="#D2232A" stroke-width="2" stroke-linecap="round" stroke-linejoin="round"/>
<path d="M71.1905 57.9755H55.0381" stroke="#D2232A" stroke-width="2" stroke-linecap="round" stroke-linejoin="round"/>
<path d="M94.8418 57.9755H78.6895" stroke="#D2232A" stroke-width="2" stroke-linecap="round" stroke-linejoin="round"/>
<rect x="51.5" y="55.5" width="47.4571" height="47" stroke="black"/>
</svg>
