<svg width="220" height="265" viewBox="0 0 220 265" fill="none" xmlns="http://www.w3.org/2000/svg">
<path d="M216.439 103.08L117.797 3.32385C116.755 2.27008 115.519 1.43417 114.157 0.863854C112.796 0.29354 111.337 0 109.864 0C108.391 0 106.932 0.29354 105.571 0.863854C104.209 1.43417 102.973 2.27008 101.931 3.32385L3.2889 103.08C1.18714 105.201 0.00418776 108.079 0 111.082V210.843C0.00523008 213.85 1.18868 216.732 3.29112 218.858C5.39355 220.985 8.24358 222.181 11.2169 222.187H97.5641C100.546 222.187 103.405 223.384 105.513 225.517C107.621 227.649 108.806 230.54 108.806 233.555V259.298C108.804 260.045 108.947 260.785 109.228 261.476C109.509 262.166 109.921 262.794 110.442 263.324C110.963 263.853 111.582 264.274 112.263 264.561C112.945 264.849 113.676 264.998 114.414 265C115.219 264.992 116.012 264.808 116.739 264.46L213.18 221.151C215.13 220.249 216.783 218.802 217.944 216.979C219.105 215.157 219.726 213.036 219.733 210.868V111.102C219.732 109.612 219.441 108.136 218.876 106.76C218.31 105.383 217.483 104.133 216.439 103.08Z" fill="white"/>
</svg>
