<svg width="761" height="760" viewBox="0 0 761 760" fill="none" xmlns="http://www.w3.org/2000/svg">
<path fill-rule="evenodd" clip-rule="evenodd" d="M761 491.802V760H0V0H316.215L221.759 97.1843C215.523 103.588 212.012 112.277 212 121.343V422.508C212.016 431.585 215.527 440.286 221.766 446.705C228.004 453.123 236.461 456.736 245.283 456.752H501.496C510.342 456.752 518.827 460.368 525.082 466.805C531.338 473.241 534.852 481.97 534.852 491.072V568.787C534.846 571.042 535.272 573.275 536.105 575.36C536.939 577.446 538.163 579.341 539.708 580.94C541.253 582.538 543.09 583.808 545.112 584.676C547.134 585.544 549.303 585.994 551.494 586C553.881 585.977 556.234 585.421 558.391 584.369L761 491.802ZM759.771 0L761 1.26484V0H759.771Z" fill="#262B44"/>
</svg>
