<svg width="444" height="444" viewBox="0 0 444 444" fill="none" xmlns="http://www.w3.org/2000/svg">
<path fill-rule="evenodd" clip-rule="evenodd" d="M0 152.538H32.3038C36.7136 152.538 40.9428 154.341 44.061 157.551C47.1792 160.761 48.9309 165.115 48.9309 169.655V208.415C48.928 209.54 49.1403 210.654 49.5556 211.694C49.9709 212.733 50.5812 213.679 51.3515 214.476C52.1217 215.273 53.037 215.907 54.045 216.34C55.053 216.773 56.1339 216.997 57.2262 217C58.4159 216.989 59.589 216.711 60.6643 216.187L203.308 150.979C206.191 149.621 208.636 147.441 210.354 144.697C212.072 141.953 212.99 138.76 213 135.496V0H444V444H0V152.538Z" fill="#262B44"/>
</svg>
