<svg width="440" height="440" viewBox="0 0 440 440" fill="none" xmlns="http://www.w3.org/2000/svg">
<path fill-rule="evenodd" clip-rule="evenodd" d="M440 0H0V440H403.931V429.655C403.931 425.115 402.179 420.761 399.061 417.551C395.943 414.341 391.714 412.538 387.304 412.538H259.591C255.193 412.53 250.977 410.728 247.868 407.527C244.758 404.325 243.008 399.986 243 395.458V245.252C243.006 240.731 244.756 236.397 247.865 233.203L393.763 83.0046C395.304 81.418 397.133 80.1594 399.146 79.3007C401.159 78.442 403.317 78 405.496 78C407.676 78 409.833 78.442 411.847 79.3007C413.86 80.1594 415.689 81.418 417.23 83.0046L440 106.446V0Z" fill="#262B44"/>
</svg>
