<svg width="614" height="614" viewBox="0 0 614 614" fill="none" xmlns="http://www.w3.org/2000/svg">
<path fill-rule="evenodd" clip-rule="evenodd" d="M313.726 0L487.77 179.173C490.377 181.85 492.445 185.031 493.858 188.532C495.27 192.033 495.998 195.786 496 199.577V453.321C495.983 458.836 494.432 464.229 491.53 468.864C488.629 473.499 484.498 477.182 479.627 479.476L238.67 589.626C236.854 590.512 234.872 590.981 232.862 591C231.017 590.995 229.191 590.616 227.488 589.884C225.786 589.153 224.24 588.083 222.938 586.737C221.637 585.39 220.606 583.793 219.905 582.036C219.203 580.279 218.845 578.398 218.849 576.498V511.024C218.849 503.355 215.89 496 210.623 490.578C205.356 485.155 198.212 482.109 190.762 482.109H0V614H614V0H313.726ZM129.261 0L0 133.07V0H129.261Z" fill="#262B44"/>
</svg>
