<?xml version="1.0" encoding="utf-8"?>
<!-- Generator: Adobe Illustrator 24.1.2, SVG Export Plug-In . SVG Version: 6.00 Build 0)  -->
<svg version="1.1" id="Layer_1" xmlns="http://www.w3.org/2000/svg" xmlns:xlink="http://www.w3.org/1999/xlink" x="0px" y="0px"
	 viewBox="0 0 733.3 733.3" style="enable-background:new 0 0 733.3 733.3;" xml:space="preserve">
<style type="text/css">
	.st0{fill-rule:evenodd;clip-rule:evenodd;fill:#262B44;}
</style>
<path class="st0" d="M313.7,0l174,179.2c2.6,2.7,4.7,5.9,6.1,9.4c1.4,3.5,2.1,7.3,2.1,11v253.7c0,5.5-1.6,10.9-4.5,15.5
	c-2.9,4.6-7,8.3-11.9,10.6l-241,110.1c-1.8,0.9-3.8,1.4-5.8,1.4c-1.8,0-3.7-0.4-5.4-1.1c-1.7-0.7-3.2-1.8-4.6-3.1
	c-1.3-1.3-2.3-2.9-3-4.7c-0.7-1.8-1.1-3.6-1.1-5.5V511c0-7.7-3-15-8.2-20.4c-5.3-5.4-12.4-8.5-19.9-8.5H0v251.2h733.3V0H313.7z
	 M129.3,0L0,133.1V0H129.3z"/>
</svg>
