<svg width="300" height="14" viewBox="0 0 300 14" fill="none" xmlns="http://www.w3.org/2000/svg">
<path d="M0.679932 11.9999V0.79991H4.77593C6.01327 0.79991 6.90927 1.11991 7.46393 1.75991C8.02927 2.38924 8.31193 3.16791 8.31193 4.09591C8.31193 4.95991 8.0186 5.72258 7.43193 6.38391C6.84527 7.04524 5.95993 7.37591 4.77593 7.37591H1.79993V11.9999H0.679932ZM4.87193 6.36791C5.6826 6.36791 6.27993 6.14391 6.66393 5.69591C7.04793 5.24791 7.23993 4.71458 7.23993 4.09591C7.23993 3.48791 7.05327 2.95458 6.67993 2.49591C6.31726 2.03724 5.7146 1.80791 4.87193 1.80791H1.79993V6.36791H4.87193Z" fill="white"/>
<path d="M20.1597 11.9999L19.1357 9.10391H14.7677L13.7917 11.9999H12.6237L16.5117 0.79991H17.3757L21.2957 11.9999H20.1597ZM18.7997 8.11191L17.2637 3.63191C17.093 3.15191 16.9863 2.81591 16.9437 2.62391L16.8157 3.03991C16.741 3.32791 16.6823 3.52524 16.6397 3.63191L15.1037 8.11191H18.7997Z" fill="white"/>
<path d="M30.9392 12.1919C30.0325 12.1919 29.2432 11.9732 28.5712 11.5359C27.8992 11.0986 27.4458 10.5599 27.2112 9.91991L28.2672 9.53591C28.5018 10.0372 28.8538 10.4372 29.3232 10.7359C29.7925 11.0346 30.3365 11.1839 30.9552 11.1839C31.6912 11.1839 32.2672 11.0079 32.6832 10.6559C33.1098 10.2932 33.3232 9.78124 33.3232 9.11991C33.3232 8.49058 33.0938 7.97324 32.6352 7.56791C32.1765 7.15191 31.5632 6.79991 30.7952 6.51191C30.3365 6.34124 29.9365 6.17058 29.5952 5.99991C29.2645 5.82924 28.9232 5.61591 28.5712 5.35991C28.2298 5.09324 27.9685 4.77858 27.7872 4.41591C27.6058 4.05324 27.5152 3.65324 27.5152 3.21591C27.5152 2.47991 27.8138 1.86124 28.4112 1.35991C29.0085 0.858577 29.8085 0.60791 30.8112 0.60791C31.6218 0.60791 32.3045 0.773243 32.8592 1.10391C33.4138 1.43458 33.7712 1.86124 33.9312 2.38391L32.8912 2.73591C32.7418 2.41591 32.4805 2.14924 32.1072 1.93591C31.7445 1.72258 31.2965 1.61591 30.7632 1.61591C30.1125 1.61591 29.6005 1.75991 29.2272 2.04791C28.8538 2.33591 28.6672 2.71991 28.6672 3.19991C28.6672 3.48791 28.7312 3.74391 28.8592 3.96791C28.9978 4.19191 29.2005 4.39458 29.4672 4.57591C29.7445 4.75724 30.0058 4.90658 30.2512 5.02391C30.5072 5.14124 30.8378 5.27991 31.2432 5.43991C31.6805 5.61058 32.0645 5.79191 32.3952 5.98391C32.7365 6.16524 33.0725 6.39991 33.4032 6.68791C33.7445 6.97591 34.0058 7.32258 34.1872 7.72791C34.3792 8.13324 34.4752 8.58658 34.4752 9.08791C34.4752 10.0586 34.1498 10.8212 33.4992 11.3759C32.8485 11.9199 31.9952 12.1919 30.9392 12.1919Z" fill="white"/>
<path d="M41.6712 11.9999V0.79991H48.0552V1.87191H42.7912V5.67991H46.3432V6.73591H42.7912V10.9279H48.4072V11.9999H41.6712Z" fill="white"/>
<path d="M61.2941 11.6959C60.6754 12.0266 59.9501 12.1919 59.1181 12.1919C58.2861 12.1919 57.5607 12.0266 56.9421 11.6959C56.3234 11.3546 55.8381 10.9012 55.4861 10.3359C55.1447 9.75991 54.8887 9.14658 54.7181 8.49591C54.5581 7.83458 54.4781 7.13591 54.4781 6.39991C54.4781 5.66391 54.5581 4.97058 54.7181 4.31991C54.8887 3.65858 55.1447 3.04524 55.4861 2.47991C55.8381 1.90391 56.3234 1.45058 56.9421 1.11991C57.5607 0.778577 58.2861 0.60791 59.1181 0.60791C59.9501 0.60791 60.6754 0.778577 61.2941 1.11991C61.9127 1.45058 62.3927 1.90391 62.7341 2.47991C63.0861 3.04524 63.3421 3.65858 63.5021 4.31991C63.6727 4.97058 63.7581 5.66391 63.7581 6.39991C63.7581 7.13591 63.6727 7.83458 63.5021 8.49591C63.3421 9.14658 63.0861 9.75991 62.7341 10.3359C62.3927 10.9012 61.9127 11.3546 61.2941 11.6959ZM59.1181 11.1839C59.7367 11.1839 60.2754 11.0452 60.7341 10.7679C61.2034 10.4799 61.5661 10.1012 61.8221 9.63191C62.0887 9.15191 62.2807 8.63991 62.3981 8.09591C62.5261 7.55191 62.5901 6.98658 62.5901 6.39991C62.5901 5.53591 62.4834 4.76258 62.2701 4.07991C62.0674 3.38658 61.6941 2.80524 61.1501 2.33591C60.6167 1.85591 59.9394 1.61591 59.1181 1.61591C58.4994 1.61591 57.9554 1.75991 57.4861 2.04791C57.0274 2.32524 56.6647 2.70391 56.3981 3.18391C56.1421 3.65324 55.9501 4.15991 55.8221 4.70391C55.7047 5.24791 55.6461 5.81324 55.6461 6.39991C55.6461 7.26391 55.7474 8.04258 55.9501 8.73591C56.1634 9.41858 56.5367 9.99991 57.0701 10.4799C57.6141 10.9492 58.2967 11.1839 59.1181 11.1839Z" fill="white"/>
<path d="M78.8812 11.9999V0.79991H82.9772C84.2145 0.79991 85.1105 1.11991 85.6652 1.75991C86.2305 2.38924 86.5132 3.16791 86.5132 4.09591C86.5132 4.95991 86.2198 5.72258 85.6332 6.38391C85.0465 7.04524 84.1612 7.37591 82.9772 7.37591H80.0012V11.9999H78.8812ZM83.0732 6.36791C83.8838 6.36791 84.4812 6.14391 84.8652 5.69591C85.2492 5.24791 85.4412 4.71458 85.4412 4.09591C85.4412 3.48791 85.2545 2.95458 84.8812 2.49591C84.5185 2.03724 83.9158 1.80791 83.0732 1.80791H80.0012V6.36791H83.0732Z" fill="white"/>
<path d="M98.3609 11.9999L97.3369 9.10391H92.9689L91.9929 11.9999H90.8249L94.7129 0.79991H95.5769L99.4969 11.9999H98.3609ZM97.0009 8.11191L95.4649 3.63191C95.2943 3.15191 95.1876 2.81591 95.1449 2.62391L95.0169 3.03991C94.9423 3.32791 94.8836 3.52524 94.8409 3.63191L93.3049 8.11191H97.0009Z" fill="white"/>
<path d="M106.146 11.9999V0.79991H110.258C111.474 0.79991 112.354 1.09858 112.898 1.69591C113.442 2.28258 113.714 3.00791 113.714 3.87191C113.714 4.62924 113.49 5.29591 113.042 5.87191C112.594 6.43724 111.896 6.79458 110.946 6.94391L113.426 11.9999H112.194L109.794 6.99191H107.266V11.9999H106.146ZM107.266 5.98391H110.29C111.101 5.98391 111.693 5.78658 112.066 5.39191C112.45 4.98658 112.642 4.49591 112.642 3.91991C112.642 3.37591 112.456 2.89058 112.082 2.46391C111.72 2.02658 111.122 1.80791 110.29 1.80791H107.266V5.98391Z" fill="white"/>
<path d="M127.207 11.6639C126.567 12.0159 125.831 12.1919 124.999 12.1919C124.167 12.1919 123.442 12.0266 122.823 11.6959C122.205 11.3546 121.719 10.9012 121.367 10.3359C121.026 9.75991 120.77 9.14658 120.599 8.49591C120.439 7.83458 120.359 7.13591 120.359 6.39991C120.359 5.66391 120.439 4.97058 120.599 4.31991C120.77 3.65858 121.026 3.04524 121.367 2.47991C121.719 1.90391 122.205 1.45058 122.823 1.11991C123.442 0.778577 124.167 0.60791 124.999 0.60791C125.831 0.60791 126.557 0.778577 127.175 1.11991C127.794 1.45058 128.274 1.90391 128.615 2.47991C128.967 3.04524 129.223 3.65858 129.383 4.31991C129.554 4.97058 129.639 5.66391 129.639 6.39991C129.639 8.49058 129.085 10.0532 127.975 11.0879L128.903 12.4639L128.135 13.0399L127.207 11.6639ZM124.999 11.1839C125.607 11.1839 126.141 11.0452 126.599 10.7679L125.847 9.64791L126.647 9.07191L127.351 10.1279C128.098 9.24258 128.471 7.99991 128.471 6.39991C128.471 5.53591 128.365 4.76258 128.151 4.07991C127.949 3.38658 127.575 2.80524 127.031 2.33591C126.498 1.85591 125.821 1.61591 124.999 1.61591C124.381 1.61591 123.837 1.75991 123.367 2.04791C122.909 2.32524 122.546 2.70391 122.279 3.18391C122.023 3.65324 121.831 4.15991 121.703 4.70391C121.586 5.24791 121.527 5.81324 121.527 6.39991C121.527 7.26391 121.629 8.04258 121.831 8.73591C122.045 9.41858 122.418 9.99991 122.951 10.4799C123.495 10.9492 124.178 11.1839 124.999 11.1839Z" fill="white"/>
<path d="M144.355 7.83991C144.355 10.7412 143.075 12.1919 140.515 12.1919C137.955 12.1919 136.675 10.7412 136.675 7.83991V0.79991H137.795V7.83991C137.795 10.0692 138.702 11.1839 140.515 11.1839C142.328 11.1839 143.235 10.0692 143.235 7.83991V0.79991H144.355V7.83991Z" fill="white"/>
<path d="M151.95 11.9999V0.79991H158.334V1.87191H153.07V5.67991H156.622V6.73591H153.07V10.9279H158.686V11.9999H151.95Z" fill="white"/>
<path d="M173.809 0.79991H177.521C178.726 0.79991 179.595 1.08258 180.129 1.64791C180.673 2.20258 180.945 2.89591 180.945 3.72791C180.945 4.28258 180.785 4.76791 180.465 5.18391C180.155 5.58924 179.729 5.89324 179.185 6.09591C179.825 6.25591 180.342 6.57591 180.737 7.05591C181.142 7.52524 181.345 8.12791 181.345 8.86391C181.345 9.74924 181.062 10.4959 180.497 11.1039C179.942 11.7012 179.035 11.9999 177.777 11.9999H173.809V0.79991ZM177.249 5.69591C178.113 5.69591 178.769 5.51991 179.217 5.16791C179.675 4.80524 179.905 4.31458 179.905 3.69591C179.905 2.43724 179.142 1.80791 177.617 1.80791H174.929V5.69591H177.249ZM177.969 10.9919C178.811 10.9919 179.409 10.7999 179.761 10.4159C180.123 10.0319 180.305 9.54658 180.305 8.95991C180.305 7.43458 179.35 6.67191 177.441 6.67191H174.929V10.9919H177.969Z" fill="white"/>
<path d="M188.472 11.9999V0.79991H194.856V1.87191H189.592V5.67991H193.144V6.73591H189.592V10.9279H195.208V11.9999H188.472Z" fill="white"/>
<path d="M202.324 11.9999V0.79991H203.444V10.9279H208.996V11.9999H202.324Z" fill="white"/>
<path d="M215.55 11.9999V0.79991H216.67V10.9279H222.222V11.9999H215.55Z" fill="white"/>
<path d="M235.592 11.9999L234.568 9.10391H230.2L229.224 11.9999H228.056L231.944 0.79991H232.808L236.728 11.9999H235.592ZM234.232 8.11191L232.696 3.63191C232.526 3.15191 232.419 2.81591 232.376 2.62391L232.248 3.03991C232.174 3.32791 232.115 3.52524 232.072 3.63191L230.536 8.11191H234.232Z" fill="white"/>
<path d="M245.371 11.9999L241.531 0.79991H242.715L245.515 9.19991C245.557 9.31724 245.611 9.48791 245.675 9.71191C245.749 9.93591 245.803 10.0959 245.835 10.1919C245.867 10.0639 245.92 9.88791 245.995 9.66391C246.069 9.42924 246.117 9.27458 246.139 9.19991L248.811 0.79991H250.011L246.187 11.9999H245.371Z" fill="white"/>
<path d="M256.651 11.9999V0.79991H257.771V11.9999H256.651Z" fill="white"/>
<path d="M268.543 12.1919C267.636 12.1919 266.847 11.9732 266.175 11.5359C265.503 11.0986 265.05 10.5599 264.815 9.91991L265.871 9.53591C266.106 10.0372 266.458 10.4372 266.927 10.7359C267.396 11.0346 267.94 11.1839 268.559 11.1839C269.295 11.1839 269.871 11.0079 270.287 10.6559C270.714 10.2932 270.927 9.78124 270.927 9.11991C270.927 8.49058 270.698 7.97324 270.239 7.56791C269.78 7.15191 269.167 6.79991 268.399 6.51191C267.94 6.34124 267.54 6.17058 267.199 5.99991C266.868 5.82924 266.527 5.61591 266.175 5.35991C265.834 5.09324 265.572 4.77858 265.391 4.41591C265.21 4.05324 265.119 3.65324 265.119 3.21591C265.119 2.47991 265.418 1.86124 266.015 1.35991C266.612 0.858577 267.412 0.60791 268.415 0.60791C269.226 0.60791 269.908 0.773243 270.463 1.10391C271.018 1.43458 271.375 1.86124 271.535 2.38391L270.495 2.73591C270.346 2.41591 270.084 2.14924 269.711 1.93591C269.348 1.72258 268.9 1.61591 268.367 1.61591C267.716 1.61591 267.204 1.75991 266.831 2.04791C266.458 2.33591 266.271 2.71991 266.271 3.19991C266.271 3.48791 266.335 3.74391 266.463 3.96791C266.602 4.19191 266.804 4.39458 267.071 4.57591C267.348 4.75724 267.61 4.90658 267.855 5.02391C268.111 5.14124 268.442 5.27991 268.847 5.43991C269.284 5.61058 269.668 5.79191 269.999 5.98391C270.34 6.16524 270.676 6.39991 271.007 6.68791C271.348 6.97591 271.61 7.32258 271.791 7.72791C271.983 8.13324 272.079 8.58658 272.079 9.08791C272.079 10.0586 271.754 10.8212 271.103 11.3759C270.452 11.9199 269.599 12.1919 268.543 12.1919Z" fill="white"/>
<path d="M282.747 1.87191V11.9999H281.627V1.87191H278.555V0.79991H285.835V1.87191H282.747Z" fill="white"/>
<path d="M298.02 11.9999L296.996 9.10391H292.628L291.652 11.9999H290.484L294.372 0.79991H295.236L299.156 11.9999H298.02ZM296.66 8.11191L295.124 3.63191C294.954 3.15191 294.847 2.81591 294.804 2.62391L294.676 3.03991C294.602 3.32791 294.543 3.52524 294.5 3.63191L292.964 8.11191H296.66Z" fill="white"/>
</svg>
